<svg width="722" height="722" viewBox="0 0 722 722" fill="none" xmlns="http://www.w3.org/2000/svg">
<g filter="url(#filter0_d_112_4101)">
<path d="M285.609 535.373C287.708 545.636 290.616 555.733 294.313 565.567L298.127 567.736L304.349 570.84L309.109 572.77L314.027 574.243L319.068 575.26L329.098 576.541L339.18 577.295L349.28 577.558L371.72 577.558L381.838 577.295L391.902 576.541L401.932 575.26L406.974 574.243L411.891 572.77L416.651 570.84L422.891 567.736L426.682 565.58C430.381 555.741 433.291 545.641 435.391 535.373L433.749 535.008L428.954 534.446L427.844 534.434L424.125 534.394L417.426 534.601L303.59 534.405L298.937 534.397L296.893 534.394L293.156 534.435L292.063 534.446L287.251 535.008L285.609 535.373Z" fill="#FF0000" fill-opacity="0.4" shape-rendering="crispEdges"/>
<path d="M279.761 585.814L281.646 579.119L283.884 572.542L286.458 566.07L287.181 564.965L288.238 564.158L289.507 563.755L290.847 563.807L292.081 564.298L294.313 565.567C290.616 555.733 287.708 545.636 285.609 535.373L282.527 536.06L282.809 540.585L282.668 547.005L281.822 553.354L279.513 566.508L277.909 579.768L277.979 581.837L278.561 583.837L279.583 585.626L279.761 585.814Z" fill="#FF0000" fill-opacity="0.4" shape-rendering="crispEdges"/>
<path d="M283.884 572.542L281.646 579.119L279.761 585.814L281.011 587.134L282.043 587.963L285.665 590.87L290.636 594.203L295.871 597.114L301.318 599.57L306.976 601.552L317.129 604.323L327.441 606.48L337.876 608.041L348.364 608.971L358.905 609.286L362.113 609.286L372.636 608.971L383.142 608.041L393.559 606.48L403.871 604.323L414.042 601.552L419.683 599.57L425.147 597.114L430.382 594.203L435.335 590.87L438.974 587.96L440.007 587.134L441.257 585.814L439.372 579.119L437.133 572.542L434.542 566.07L433.819 564.965L432.762 564.158L431.493 563.755L430.171 563.807L428.937 564.298L426.682 565.58L422.891 567.736L416.651 570.84L411.891 572.77L406.974 574.243L401.932 575.26L391.902 576.541L381.838 577.295L371.72 577.558L349.28 577.558L339.18 577.295L329.098 576.541L319.068 575.26L314.027 574.243L309.109 572.77L304.349 570.84L298.127 567.736L294.313 565.567L292.081 564.298L290.847 563.807L289.507 563.755L288.238 564.158L287.181 564.965L286.458 566.07L283.884 572.542Z" fill="#FF0000" fill-opacity="0.4" shape-rendering="crispEdges"/>
<path d="M428.937 564.298L430.171 563.807L431.493 563.755L432.762 564.158L433.819 564.965L434.542 566.07L437.133 572.542L439.372 579.119L441.257 585.814L441.434 585.626L442.457 583.837L443.021 581.837L443.109 579.768L441.487 566.508L439.178 553.354L438.35 547.005L438.191 540.585L438.473 536.06L435.391 535.373C433.291 545.641 430.381 555.741 426.682 565.58L428.937 564.298Z" fill="#FF0000" fill-opacity="0.4" shape-rendering="crispEdges"/>
<path d="M434.242 602.727L439.707 600.026L440.836 599.324L440.548 596.787L434.701 599.956L434.101 600.429L433.714 601.096L432.906 603.233L434.242 602.727Z" fill="#FF0000" fill-opacity="0.4" shape-rendering="crispEdges"/>
<path d="M319.632 610.637L315.014 610.321L307.381 608.971L299.854 607.164L292.451 604.884L288.095 603.233L286.758 602.727L280.169 599.391L278.99 603.561L279.196 603.656L285.577 606.884L292.204 609.62L299.008 611.865L310.554 614.846L322.258 617.179L334.068 618.863L345.949 619.863L357.882 620.196L363.118 620.196L375.051 619.863L386.949 618.863L398.759 617.179L410.464 614.846L422.009 611.865L428.813 609.62L435.423 606.884L441.804 603.656L442.007 603.546L440.836 599.324L439.707 600.026L434.242 602.727L432.906 603.233L428.549 604.884L421.146 607.164L413.619 608.971L405.986 610.321L401.386 610.637L397.508 610.549C389.958 613.104 381.691 614.183 373.748 614.285C372.677 614.885 371.502 615.297 370.274 615.495L370.01 615.741L369.587 615.881L367.754 616.197L365.215 616.407L364.105 616.46L361.831 616.53L359.187 616.53L357.354 616.478L355.362 616.372L352.682 616.127L351.519 615.916L351.026 615.758L350.832 615.653L350.743 615.495C349.51 615.299 348.33 614.887 347.255 614.285C339.43 614.183 330.91 613.27 323.518 610.548L319.632 610.637Z" fill="#FF0000" fill-opacity="0.4" shape-rendering="crispEdges"/>
<path d="M287.304 601.096L286.916 600.429L286.299 599.956L280.464 596.74L280.169 599.391L286.758 602.727L288.095 603.233L287.304 601.096Z" fill="#FF0000" fill-opacity="0.4" shape-rendering="crispEdges"/>
<path d="M359.187 616.53L361.831 616.53L364.105 616.46L365.215 616.407L367.754 616.197L369.587 615.881L370.01 615.741L370.274 615.495L370.01 615.267L368.617 614.934L367.048 614.741L364.986 614.601L361.161 614.478L359.857 614.478L357.354 614.531L354.339 614.706L351.942 615.022L350.814 615.39L350.743 615.495L350.832 615.653L351.026 615.758L351.519 615.916L352.682 616.127L355.362 616.372L357.354 616.478L359.187 616.53Z" fill="#FF0000" fill-opacity="0.4" shape-rendering="crispEdges"/>
<path d="M294.337 565.631C294.329 565.61 294.321 565.589 294.313 565.567M293.385 565.07L292.204 565.07L290.865 565.316L289.684 566.052L288.855 567.14L285.876 575.173L283.267 583.363L282.043 587.963M344.944 612.531C345.633 613.224 346.412 613.813 347.255 614.285M350.743 615.495L350.832 615.653L351.026 615.758L351.519 615.916L352.682 616.127L355.362 616.372L357.354 616.478L359.187 616.53L361.831 616.53L364.105 616.46L365.215 616.407L367.754 616.197L369.587 615.881L370.01 615.741L370.274 615.495M350.743 615.495L350.814 615.39L351.942 615.022L354.339 614.706L357.354 614.531L359.857 614.478L361.161 614.478L364.986 614.601L367.048 614.741L368.617 614.934L370.01 615.267L370.274 615.495M350.743 615.495C349.51 615.299 348.33 614.887 347.255 614.285M347.271 614.285C347.266 614.285 347.26 614.285 347.255 614.285M288.115 603.288L288.095 603.233M282.809 554.476C283.486 558.444 284.745 562.291 286.546 565.894M281.487 564.105C282.224 566.62 283.161 569.071 284.29 571.437M282.527 576.4C281.766 574.525 280.966 572.666 280.13 570.823M279.76 585.819L279.761 585.814M441.258 585.819L441.257 585.814M426.663 565.631C426.669 565.614 426.676 565.597 426.682 565.58M296.646 566.929L295.412 573.577L294.707 580.312L294.813 583.258L295.518 586.117L296.752 588.801L298.515 591.186L300.701 593.185L303.239 594.711L310.483 597.763L317.975 600.184L325.643 601.937L333.434 603.025L341.295 603.428L347.007 603.2L354.287 602.85L366.731 602.85L374.011 603.2L379.722 603.428L387.584 603.025L395.375 601.937L403.043 600.184L410.534 597.763L417.779 594.711L420.317 593.185L422.503 591.186L424.248 588.801L425.499 586.117L426.187 583.258L426.293 580.312L425.605 573.577L424.371 566.929M427.615 565.07L428.796 565.07L430.153 565.316L431.316 566.052L432.145 567.14L435.141 575.173L437.75 583.363L438.974 587.96M370.274 615.495C371.502 615.297 372.677 614.885 373.748 614.285M376.056 612.531C375.368 613.224 374.59 613.813 373.748 614.285M373.729 614.285C373.735 614.285 373.742 614.285 373.748 614.285M432.885 603.288L432.906 603.233M434.472 565.894C436.267 562.29 437.52 558.443 438.191 554.476M436.71 571.437C437.839 569.071 438.777 566.62 439.513 564.105M440.888 570.823C440.051 572.666 439.252 574.525 438.491 576.4M280.464 596.74L280.588 595.115L281.064 591.642L282.043 587.963M280.464 596.74L286.299 599.956L286.916 600.429L287.304 601.096L288.095 603.233M280.464 596.74L280.169 599.391M280.169 599.391L278.99 603.561L279.196 603.656L285.577 606.884L292.204 609.62L299.008 611.865L310.554 614.846L322.258 617.179L334.068 618.863L345.949 619.863L357.882 620.196L363.118 620.196L375.051 619.863L386.949 618.863L398.759 617.179L410.464 614.846L422.009 611.865L428.813 609.62L435.423 606.884L441.804 603.656L442.007 603.546L440.836 599.324M280.169 599.391L286.758 602.727L288.095 603.233M440.836 599.324L439.707 600.026L434.242 602.727L432.906 603.233M440.836 599.324L440.548 596.787M440.548 596.787L434.701 599.956L434.101 600.429L433.714 601.096L432.906 603.233M440.548 596.787L440.387 594.925M440.387 594.925L436.129 597.465L428.972 600.903L421.551 603.709L413.901 605.849L404.118 608.181L394.229 609.97L392.774 610.22M440.387 594.925L439.954 591.642L438.974 587.96M397.508 610.549L401.386 610.637L405.986 610.321L413.619 608.971L421.146 607.164L428.549 604.884L432.906 603.233M397.508 610.549C389.958 613.104 381.691 614.183 373.748 614.285M397.508 610.549L392.774 610.22M323.518 610.548L319.632 610.637L315.014 610.321L307.381 608.971L299.854 607.164L292.451 604.884L288.095 603.233M323.518 610.548L328.267 610.226L336.307 611.602L345.914 612.601L355.573 612.935L365.427 612.935L375.086 612.601L384.711 611.602L392.774 610.22M323.518 610.548C330.91 613.27 339.43 614.183 347.255 614.285M285.609 535.373C287.708 545.636 290.616 555.733 294.313 565.567M285.609 535.373L287.251 535.008L292.063 534.446L293.156 534.435L296.893 534.394L298.937 534.397L303.59 534.405L417.426 534.601L424.125 534.394L427.844 534.434L428.954 534.446L433.749 535.008L435.391 535.373M285.609 535.373L282.527 536.06L282.809 540.585L282.668 547.005L281.822 553.354L279.513 566.508L277.909 579.768L277.979 581.837L278.561 583.837L279.583 585.626L279.761 585.814M294.313 565.567L298.127 567.736L304.349 570.84L309.109 572.77L314.027 574.243L319.068 575.26L329.098 576.541L339.18 577.295L349.28 577.558L371.72 577.558L381.838 577.295L391.902 576.541L401.932 575.26L406.974 574.243L411.891 572.77L416.651 570.84L422.891 567.736L426.682 565.58M294.313 565.567L292.081 564.298L290.847 563.807L289.507 563.755L288.238 564.158L287.181 564.965L286.458 566.07L283.884 572.542L281.646 579.119L279.761 585.814M426.682 565.58C430.381 555.741 433.291 545.641 435.391 535.373M426.682 565.58L428.937 564.298L430.171 563.807L431.493 563.755L432.762 564.158L433.819 564.965L434.542 566.07L437.133 572.542L439.372 579.119L441.257 585.814M435.391 535.373L438.473 536.06L438.191 540.585L438.35 547.005L439.178 553.354L441.487 566.508L443.109 579.768L443.021 581.837L442.457 583.837L441.434 585.626L441.257 585.814M279.761 585.814L281.011 587.134L282.043 587.963M282.043 587.963L285.665 590.87L290.636 594.203L295.871 597.114L301.318 599.57L306.976 601.552L317.129 604.323L327.441 606.48L337.876 608.041L348.364 608.971L358.905 609.286L362.113 609.286L372.636 608.971L383.142 608.041L393.559 606.48L403.871 604.323L414.042 601.552L419.683 599.57L425.147 597.114L430.382 594.203L435.335 590.87L438.974 587.96M438.974 587.96L440.007 587.134L441.257 585.814" stroke="#FF0000" stroke-width="2" shape-rendering="crispEdges"/>
</g>
<defs>
<filter id="filter0_d_112_4101" x="254.907" y="511.394" width="211.205" height="131.802" filterUnits="userSpaceOnUse" color-interpolation-filters="sRGB">
<feFlood flood-opacity="0" result="BackgroundImageFix"/>
<feColorMatrix in="SourceAlpha" type="matrix" values="0 0 0 0 0 0 0 0 0 0 0 0 0 0 0 0 0 0 127 0" result="hardAlpha"/>
<feOffset/>
<feGaussianBlur stdDeviation="11"/>
<feComposite in2="hardAlpha" operator="out"/>
<feColorMatrix type="matrix" values="0 0 0 0 1 0 0 0 0 0 0 0 0 0 0 0 0 0 1 0"/>
<feBlend mode="normal" in2="BackgroundImageFix" result="effect1_dropShadow_112_4101"/>
<feBlend mode="normal" in="SourceGraphic" in2="effect1_dropShadow_112_4101" result="shape"/>
</filter>
</defs>
</svg>
