<svg width="722" height="722" viewBox="0 0 722 722" fill="none" xmlns="http://www.w3.org/2000/svg">
<g filter="url(#filter0_d_4_1855)">
<path d="M237.471 424.029L203.505 452.543L237.471 424.029Z" fill="#FF0000" fill-opacity="0.4" shape-rendering="crispEdges"/>
<path d="M203.505 452.543L169.885 481.48L203.505 452.543Z" fill="#FF0000" fill-opacity="0.4" shape-rendering="crispEdges"/>
<path d="M264.307 413.258L263.684 413.759L222.832 446.594" fill="#FF0000" fill-opacity="0.4" shape-rendering="crispEdges"/>
<path d="M222.832 446.594L207.44 459.409L222.832 446.594Z" fill="#FF0000" fill-opacity="0.4" shape-rendering="crispEdges"/>
<path d="M207.44 459.409L192.47 472.746L207.44 459.409Z" fill="#FF0000" fill-opacity="0.4" shape-rendering="crispEdges"/>
<path d="M257.143 422.855L224.7 448.915L257.143 422.855Z" fill="#FF0000" fill-opacity="0.4" shape-rendering="crispEdges"/>
<path d="M224.7 448.915L209.409 461.632L224.7 448.915Z" fill="#FF0000" fill-opacity="0.4" shape-rendering="crispEdges"/>
<path d="M209.409 461.632L194.572 474.842L194.553 474.859" fill="#FF0000" fill-opacity="0.4" shape-rendering="crispEdges"/>
<path d="M208.001 480.298C207.178 480.252 206.354 480.213 205.53 480.183C200.077 479.981 194.619 480.129 189.19 480.627C188.022 480.734 186.855 480.857 185.69 480.996C185.649 481.001 185.608 481.006 185.567 481.011" fill="#FF0000" fill-opacity="0.4" shape-rendering="crispEdges"/>
<path d="M203.025 483.579L196.258 483.457L203.025 483.579Z" fill="#FF0000" fill-opacity="0.4" shape-rendering="crispEdges"/>
<path d="M196.258 483.457L189.517 483.714L196.258 483.457Z" fill="#FF0000" fill-opacity="0.4" shape-rendering="crispEdges"/>
<path d="M189.517 483.714L182.78 484.324L189.517 483.714Z" fill="#FF0000" fill-opacity="0.4" shape-rendering="crispEdges"/>
<path d="M182.78 484.324L182.682 484.31L182.78 484.324Z" fill="#FF0000" fill-opacity="0.4" shape-rendering="crispEdges"/>
<path d="M182.618 484.226L182.592 484.135L182.618 484.226Z" fill="#FF0000" fill-opacity="0.4" shape-rendering="crispEdges"/>
<path d="M182.592 484.135L182.629 484.04L182.592 484.135Z" fill="#FF0000" fill-opacity="0.4" shape-rendering="crispEdges"/>
<path d="M182.629 484.04L185.69 480.996L187.984 478.715" fill="#FF0000" fill-opacity="0.4" shape-rendering="crispEdges"/>
<path d="M187.984 478.715L193.724 473.806L187.984 478.715Z" fill="#FF0000" fill-opacity="0.4" shape-rendering="crispEdges"/>
<path d="M193.724 473.806L194.572 474.842L198.886 480.11" fill="#FF0000" fill-opacity="0.4" shape-rendering="crispEdges"/>
<path d="M167.428 466.797L166.228 473.046L167.428 466.797Z" fill="#FF0000" fill-opacity="0.4" shape-rendering="crispEdges"/>
<path d="M166.228 473.046L166.102 474.986L166.228 473.046Z" fill="#FF0000" fill-opacity="0.4" shape-rendering="crispEdges"/>
<path d="M166.102 474.986L166.265 475.949L166.428 476.912" fill="#FF0000" fill-opacity="0.4" shape-rendering="crispEdges"/>
<path d="M166.428 476.912L167.2 478.697L166.428 476.912Z" fill="#FF0000" fill-opacity="0.4" shape-rendering="crispEdges"/>
<path d="M168.39 480.25L169.885 481.48L168.39 480.25Z" fill="#FF0000" fill-opacity="0.4" shape-rendering="crispEdges"/>
<path d="M169.885 481.48L172.871 483.012L169.885 481.48Z" fill="#FF0000" fill-opacity="0.4" shape-rendering="crispEdges"/>
<path d="M172.871 483.012L176.075 484.021L172.871 483.012Z" fill="#FF0000" fill-opacity="0.4" shape-rendering="crispEdges"/>
<path d="M176.075 484.021L179.391 484.456L176.075 484.021Z" fill="#FF0000" fill-opacity="0.4" shape-rendering="crispEdges"/>
<path d="M179.391 484.456L180.191 484.423L182.731 484.317" fill="#FF0000" fill-opacity="0.4" shape-rendering="crispEdges"/>
<path d="M264.061 414.956L256.54 421.03L264.061 414.956Z" fill="#FF0000" fill-opacity="0.4" shape-rendering="crispEdges"/>
<path d="M256.54 421.03L258.67 426.838L256.54 421.03Z" fill="#FF0000" fill-opacity="0.4" shape-rendering="crispEdges"/>
<path d="M258.67 426.838L261.331 432.415L258.67 426.838Z" fill="#FF0000" fill-opacity="0.4" shape-rendering="crispEdges"/>
<path d="M261.331 432.415L264.502 437.736L261.331 432.415Z" fill="#FF0000" fill-opacity="0.4" shape-rendering="crispEdges"/>
<path d="M269.586 433.84L267.477 427.373L269.586 433.84Z" fill="#FF0000" fill-opacity="0.4" shape-rendering="crispEdges"/>
<path d="M267.477 427.373L265.748 421.57L267.477 427.373Z" fill="#FF0000" fill-opacity="0.4" shape-rendering="crispEdges"/>
<path d="M265.748 421.57L264.317 415.693L265.748 421.57Z" fill="#FF0000" fill-opacity="0.4" shape-rendering="crispEdges"/>
<path d="M264.317 415.693L263.709 413.805L264.317 415.693Z" fill="#FF0000" fill-opacity="0.4" shape-rendering="crispEdges"/>
<path d="M263.709 413.805L263.684 413.759L262.745 412.056" fill="#FF0000" fill-opacity="0.4" shape-rendering="crispEdges"/>
<path d="M262.745 412.056L261.005 408.171L262.745 412.056Z" fill="#FF0000" fill-opacity="0.4" shape-rendering="crispEdges"/>
<path d="M261.005 408.171L260.207 405.478L259.793 404.081" fill="#FF0000" fill-opacity="0.4" shape-rendering="crispEdges"/>
<path d="M259.793 404.081L259.188 399.859L259.793 404.081Z" fill="#FF0000" fill-opacity="0.4" shape-rendering="crispEdges"/>
<path d="M201.405 454.33L199.875 453.948L201.405 454.33Z" fill="#FF0000" fill-opacity="0.4" shape-rendering="crispEdges"/>
<path d="M199.875 453.948L198.32 453.851L199.875 453.948Z" fill="#FF0000" fill-opacity="0.4" shape-rendering="crispEdges"/>
<path d="M198.32 453.851L196.767 454.131L198.32 453.851Z" fill="#FF0000" fill-opacity="0.4" shape-rendering="crispEdges"/>
<path d="M196.767 454.131L195.377 454.884L196.767 454.131Z" fill="#FF0000" fill-opacity="0.4" shape-rendering="crispEdges"/>
<path d="M188.041 460.506L186.897 461.782L188.041 460.506Z" fill="#FF0000" fill-opacity="0.4" shape-rendering="crispEdges"/>
<path d="M186.897 461.782L186.299 463.395L186.897 461.782Z" fill="#FF0000" fill-opacity="0.4" shape-rendering="crispEdges"/>
<path d="M186.299 463.395L186.197 464.762L186.299 463.395Z" fill="#FF0000" fill-opacity="0.4" shape-rendering="crispEdges"/>
<path d="M186.197 464.762L186.386 466.104L186.197 464.762Z" fill="#FF0000" fill-opacity="0.4" shape-rendering="crispEdges"/>
<path d="M206.463 450.031L204.416 449.868L206.463 450.031Z" fill="#FF0000" fill-opacity="0.4" shape-rendering="crispEdges"/>
<path d="M204.416 449.868L202.856 449.909L204.416 449.868Z" fill="#FF0000" fill-opacity="0.4" shape-rendering="crispEdges"/>
<path d="M202.856 449.909L201.35 450.308L202.856 449.909Z" fill="#FF0000" fill-opacity="0.4" shape-rendering="crispEdges"/>
<path d="M201.35 450.308L196.408 452.452L201.35 450.308Z" fill="#FF0000" fill-opacity="0.4" shape-rendering="crispEdges"/>
<path d="M196.408 452.452L191.672 455.037L196.408 452.452Z" fill="#FF0000" fill-opacity="0.4" shape-rendering="crispEdges"/>
<path d="M191.672 455.037L187.183 458.032L191.672 455.037Z" fill="#FF0000" fill-opacity="0.4" shape-rendering="crispEdges"/>
<path d="M184.066 460.798L181.866 463.55L184.066 460.798Z" fill="#FF0000" fill-opacity="0.4" shape-rendering="crispEdges"/>
<path d="M181.866 463.55L180.127 466.615L181.866 463.55Z" fill="#FF0000" fill-opacity="0.4" shape-rendering="crispEdges"/>
<path d="M180.127 466.615L178.872 469.909L180.127 466.615Z" fill="#FF0000" fill-opacity="0.4" shape-rendering="crispEdges"/>
<path d="M178.872 469.909L178.908 470.302L178.872 469.909Z" fill="#FF0000" fill-opacity="0.4" shape-rendering="crispEdges"/>
<path d="M178.908 470.302L179.169 470.614L178.908 470.302Z" fill="#FF0000" fill-opacity="0.4" shape-rendering="crispEdges"/>
<path d="M179.169 470.614L179.571 470.705L179.169 470.614Z" fill="#FF0000" fill-opacity="0.4" shape-rendering="crispEdges"/>
<path d="M179.571 470.705L179.941 470.555L179.571 470.705Z" fill="#FF0000" fill-opacity="0.4" shape-rendering="crispEdges"/>
<path d="M179.941 470.555L183.11 468.26L179.941 470.555Z" fill="#FF0000" fill-opacity="0.4" shape-rendering="crispEdges"/>
<path d="M183.11 468.26L186.386 466.104L183.11 468.26Z" fill="#FF0000" fill-opacity="0.4" shape-rendering="crispEdges"/>
<path d="M186.386 466.104L188.969 464.659L186.386 466.104Z" fill="#FF0000" fill-opacity="0.4" shape-rendering="crispEdges"/>
<path d="M188.969 464.659L191.35 462.922L188.969 464.659Z" fill="#FF0000" fill-opacity="0.4" shape-rendering="crispEdges"/>
<path d="M185.114 466.924L182.063 463.288L185.114 466.924Z" fill="#FF0000" fill-opacity="0.4" shape-rendering="crispEdges"/>
<path d="M170.942 464.059L182.051 455.747L170.942 464.059Z" fill="#FF0000" fill-opacity="0.4" shape-rendering="crispEdges"/>
<path d="M182.051 455.747L193.535 447.924L182.051 455.747Z" fill="#FF0000" fill-opacity="0.4" shape-rendering="crispEdges"/>
<path d="M193.535 447.924L201.904 442.711L205.307 440.592" fill="#FF0000" fill-opacity="0.4" shape-rendering="crispEdges"/>
<path d="M205.307 440.592L213.821 435.267L205.307 440.592Z" fill="#FF0000" fill-opacity="0.4" shape-rendering="crispEdges"/>
<path d="M213.821 435.267L222.028 429.511L213.821 435.267Z" fill="#FF0000" fill-opacity="0.4" shape-rendering="crispEdges"/>
<path d="M222.028 429.511L229.948 423.353L222.028 429.511Z" fill="#FF0000" fill-opacity="0.4" shape-rendering="crispEdges"/>
<path d="M229.948 423.353L257.01 401.573L229.948 423.353Z" fill="#FF0000" fill-opacity="0.4" shape-rendering="crispEdges"/>
<path d="M202.028 442.571L201.904 442.711L196.093 449.273" fill="#FF0000" fill-opacity="0.4" shape-rendering="crispEdges"/>
<path d="M196.093 449.273L189.778 455.622L196.093 449.273Z" fill="#FF0000" fill-opacity="0.4" shape-rendering="crispEdges"/>
<path d="M189.778 455.622L183.12 461.612L189.778 455.622Z" fill="#FF0000" fill-opacity="0.4" shape-rendering="crispEdges"/>
<path d="M237.471 424.029L203.505 452.543L169.885 481.48L172.871 483.012L176.075 484.021L179.391 484.456L180.191 484.423L192.47 472.746L207.44 459.409L222.832 446.594L263.684 413.759L262.745 412.056L261.005 408.171L260.207 405.478L237.471 424.029Z" fill="#FF0000" fill-opacity="0.4" shape-rendering="crispEdges"/>
<path d="M203.505 452.543L237.471 424.029L260.207 405.478L259.793 404.081L259.188 399.859L257.01 401.573L229.948 423.353L222.028 429.511L213.821 435.267L205.307 440.592L201.904 442.711L196.093 449.273L189.778 455.622L183.12 461.612L166.265 475.949L166.428 476.912L167.2 478.697L168.39 480.25L169.885 481.48L203.505 452.543Z" fill="#FF0000" fill-opacity="0.4" shape-rendering="crispEdges"/>
<path d="M167.428 466.797L166.228 473.046L166.102 474.986L166.265 475.949L183.12 461.612L189.778 455.622L196.093 449.273L201.904 442.711L193.535 447.924L182.051 455.747L170.942 464.059L167.428 466.797Z" fill="#FF0000" fill-opacity="0.4" shape-rendering="crispEdges"/>
<path d="M222.832 446.594L207.44 459.409L192.47 472.746L180.191 484.423L182.731 484.317L182.682 484.31L182.618 484.226L182.592 484.135L182.629 484.04L185.69 480.996L187.984 478.715L193.724 473.806L194.572 474.842L198.886 480.11C201.1 480.077 203.315 480.101 205.53 480.183C206.354 480.213 207.178 480.252 208.001 480.298L245.558 452.23L264.502 437.736L269.586 433.84L267.477 427.373L265.748 421.57L264.317 415.693L263.709 413.805L263.684 413.759L222.832 446.594Z" fill="#FF0000" fill-opacity="0.4" shape-rendering="crispEdges"/>
<path d="M193.724 473.806L187.984 478.715L185.69 480.996C186.855 480.857 188.022 480.734 189.19 480.627C192.414 480.331 195.649 480.159 198.886 480.11L194.572 474.842L193.724 473.806Z" fill="#FF0000" fill-opacity="0.4" shape-rendering="crispEdges"/>
<path d="M196.258 483.457L203.025 483.579L208.001 480.298C207.178 480.252 206.354 480.213 205.53 480.183C203.315 480.101 201.1 480.077 198.886 480.11C195.649 480.159 192.414 480.331 189.19 480.627C188.022 480.734 186.855 480.857 185.69 480.996L182.629 484.04L182.592 484.135L182.618 484.226L182.682 484.31L182.731 484.317L182.78 484.324L189.517 483.714L196.258 483.457Z" fill="#FF0000" fill-opacity="0.4" shape-rendering="crispEdges"/>
<path d="M169.885 481.48L203.505 452.543L237.471 424.029L260.207 405.478M169.885 481.48L168.39 480.25L167.2 478.697L166.428 476.912L166.265 475.949M169.885 481.48L172.871 483.012L176.075 484.021L179.391 484.456L180.191 484.423M264.307 413.258L263.684 413.759M257.143 422.855L224.7 448.915L209.409 461.632L194.572 474.842M194.553 474.859L194.572 474.842M208.001 480.298L203.025 483.579L196.258 483.457L189.517 483.714L182.78 484.324M208.001 480.298L245.558 452.23L264.502 437.736M208.001 480.298C207.178 480.252 206.354 480.213 205.53 480.183M185.567 481.011C185.608 481.006 185.649 481.001 185.69 480.996M182.78 484.324L182.682 484.31M182.78 484.324L182.731 484.317M182.682 484.31L182.618 484.226L182.592 484.135L182.629 484.04L185.69 480.996M182.682 484.31L182.731 484.317M198.886 480.11L194.572 474.842M198.886 480.11C201.1 480.077 203.315 480.101 205.53 480.183M198.886 480.11C195.649 480.159 192.414 480.331 189.19 480.627M182.731 484.317L180.191 484.423M264.061 414.956L256.54 421.03L258.67 426.838L261.331 432.415L264.502 437.736M264.502 437.736L269.586 433.84L267.477 427.373L265.748 421.57L264.317 415.693L263.709 413.805L263.684 413.759M201.405 454.33L199.875 453.948L198.32 453.851L196.767 454.131L195.377 454.884L188.041 460.506L186.897 461.782L186.299 463.395L186.197 464.762L186.386 466.104M186.386 466.104L183.11 468.26L179.941 470.555L179.571 470.705L179.169 470.614L178.908 470.302L178.872 469.909L180.127 466.615L181.866 463.55L184.066 460.798M186.386 466.104L188.969 464.659L191.35 462.922M206.463 450.031L204.416 449.868L202.856 449.909L201.35 450.308L196.408 452.452L191.672 455.037L187.183 458.032M185.114 466.924L182.063 463.288M202.028 442.571L201.904 442.711M180.191 484.423L192.47 472.746L207.44 459.409L222.832 446.594L263.684 413.759M260.207 405.478L261.005 408.171L262.745 412.056L263.684 413.759M260.207 405.478L259.793 404.081L259.188 399.859L257.01 401.573L229.948 423.353L222.028 429.511L213.821 435.267L205.307 440.592L201.904 442.711M166.265 475.949L166.102 474.986L166.228 473.046L167.428 466.797L170.942 464.059L182.051 455.747L193.535 447.924L201.904 442.711M166.265 475.949L183.12 461.612L189.778 455.622L196.093 449.273L201.904 442.711M185.69 480.996L187.984 478.715L193.724 473.806L194.572 474.842M185.69 480.996C186.855 480.857 188.022 480.734 189.19 480.627M205.53 480.183C200.077 479.981 194.619 480.129 189.19 480.627" stroke="#FF0000" stroke-width="2" shape-rendering="crispEdges"/>
</g>
<defs>
<filter id="filter0_d_4_1855" x="143.096" y="376.002" width="149.66" height="131.457" filterUnits="userSpaceOnUse" color-interpolation-filters="sRGB">
<feFlood flood-opacity="0" result="BackgroundImageFix"/>
<feColorMatrix in="SourceAlpha" type="matrix" values="0 0 0 0 0 0 0 0 0 0 0 0 0 0 0 0 0 0 127 0" result="hardAlpha"/>
<feOffset/>
<feGaussianBlur stdDeviation="11"/>
<feComposite in2="hardAlpha" operator="out"/>
<feColorMatrix type="matrix" values="0 0 0 0 1 0 0 0 0 0 0 0 0 0 0 0 0 0 1 0"/>
<feBlend mode="normal" in2="BackgroundImageFix" result="effect1_dropShadow_4_1855"/>
<feBlend mode="normal" in="SourceGraphic" in2="effect1_dropShadow_4_1855" result="shape"/>
</filter>
</defs>
</svg>
