<svg width="722" height="722" viewBox="0 0 722 722" fill="none" xmlns="http://www.w3.org/2000/svg">
<g filter="url(#filter0_d_4_2264)">
<path d="M485.794 424.029L519.76 452.543L485.794 424.029Z" fill="#FF0000" fill-opacity="0.4" shape-rendering="crispEdges"/>
<path d="M519.76 452.543L553.379 481.48L519.76 452.543Z" fill="#FF0000" fill-opacity="0.4" shape-rendering="crispEdges"/>
<path d="M458.957 413.258L459.58 413.759L500.432 446.594" fill="#FF0000" fill-opacity="0.4" shape-rendering="crispEdges"/>
<path d="M500.432 446.594L515.824 459.409L500.432 446.594Z" fill="#FF0000" fill-opacity="0.4" shape-rendering="crispEdges"/>
<path d="M515.824 459.409L530.794 472.746L515.824 459.409Z" fill="#FF0000" fill-opacity="0.4" shape-rendering="crispEdges"/>
<path d="M466.121 422.855L498.565 448.915L466.121 422.855Z" fill="#FF0000" fill-opacity="0.4" shape-rendering="crispEdges"/>
<path d="M498.565 448.915L513.856 461.632L498.565 448.915Z" fill="#FF0000" fill-opacity="0.4" shape-rendering="crispEdges"/>
<path d="M513.856 461.632L528.692 474.842L528.711 474.859" fill="#FF0000" fill-opacity="0.4" shape-rendering="crispEdges"/>
<path d="M515.263 480.298C516.086 480.252 516.91 480.213 517.734 480.183C523.187 479.981 528.645 480.129 534.074 480.627C535.242 480.734 536.409 480.857 537.574 480.996C537.615 481.001 537.656 481.006 537.697 481.011" fill="#FF0000" fill-opacity="0.4" shape-rendering="crispEdges"/>
<path d="M520.24 483.579L527.006 483.457L520.24 483.579Z" fill="#FF0000" fill-opacity="0.4" shape-rendering="crispEdges"/>
<path d="M527.006 483.457L533.747 483.714L527.006 483.457Z" fill="#FF0000" fill-opacity="0.4" shape-rendering="crispEdges"/>
<path d="M533.747 483.714L540.484 484.324L533.747 483.714Z" fill="#FF0000" fill-opacity="0.4" shape-rendering="crispEdges"/>
<path d="M540.484 484.324L540.582 484.31L540.484 484.324Z" fill="#FF0000" fill-opacity="0.4" shape-rendering="crispEdges"/>
<path d="M540.647 484.226L540.672 484.135L540.647 484.226Z" fill="#FF0000" fill-opacity="0.4" shape-rendering="crispEdges"/>
<path d="M540.672 484.135L540.635 484.04L540.672 484.135Z" fill="#FF0000" fill-opacity="0.4" shape-rendering="crispEdges"/>
<path d="M540.635 484.04L537.574 480.996L535.28 478.715" fill="#FF0000" fill-opacity="0.4" shape-rendering="crispEdges"/>
<path d="M535.28 478.715L529.54 473.806L535.28 478.715Z" fill="#FF0000" fill-opacity="0.4" shape-rendering="crispEdges"/>
<path d="M529.54 473.806L528.692 474.842L524.378 480.11" fill="#FF0000" fill-opacity="0.4" shape-rendering="crispEdges"/>
<path d="M555.836 466.797L557.036 473.046L555.836 466.797Z" fill="#FF0000" fill-opacity="0.4" shape-rendering="crispEdges"/>
<path d="M557.036 473.046L557.163 474.986L557.036 473.046Z" fill="#FF0000" fill-opacity="0.4" shape-rendering="crispEdges"/>
<path d="M557.163 474.986L556.999 475.949L556.836 476.912" fill="#FF0000" fill-opacity="0.4" shape-rendering="crispEdges"/>
<path d="M556.836 476.912L556.065 478.697L556.836 476.912Z" fill="#FF0000" fill-opacity="0.4" shape-rendering="crispEdges"/>
<path d="M554.874 480.25L553.379 481.48L554.874 480.25Z" fill="#FF0000" fill-opacity="0.4" shape-rendering="crispEdges"/>
<path d="M553.379 481.48L550.394 483.012L553.379 481.48Z" fill="#FF0000" fill-opacity="0.4" shape-rendering="crispEdges"/>
<path d="M550.394 483.012L547.19 484.021L550.394 483.012Z" fill="#FF0000" fill-opacity="0.4" shape-rendering="crispEdges"/>
<path d="M547.19 484.021L543.873 484.456L547.19 484.021Z" fill="#FF0000" fill-opacity="0.4" shape-rendering="crispEdges"/>
<path d="M543.873 484.456L543.073 484.423L540.533 484.317" fill="#FF0000" fill-opacity="0.4" shape-rendering="crispEdges"/>
<path d="M459.203 414.956L466.724 421.03L459.203 414.956Z" fill="#FF0000" fill-opacity="0.4" shape-rendering="crispEdges"/>
<path d="M466.724 421.03L464.594 426.838L466.724 421.03Z" fill="#FF0000" fill-opacity="0.4" shape-rendering="crispEdges"/>
<path d="M464.594 426.838L461.933 432.415L464.594 426.838Z" fill="#FF0000" fill-opacity="0.4" shape-rendering="crispEdges"/>
<path d="M461.933 432.415L458.762 437.736L461.933 432.415Z" fill="#FF0000" fill-opacity="0.4" shape-rendering="crispEdges"/>
<path d="M453.678 433.84L455.787 427.373L453.678 433.84Z" fill="#FF0000" fill-opacity="0.4" shape-rendering="crispEdges"/>
<path d="M455.787 427.373L457.516 421.57L455.787 427.373Z" fill="#FF0000" fill-opacity="0.4" shape-rendering="crispEdges"/>
<path d="M457.516 421.57L458.948 415.693L457.516 421.57Z" fill="#FF0000" fill-opacity="0.4" shape-rendering="crispEdges"/>
<path d="M458.948 415.693L459.555 413.805L458.948 415.693Z" fill="#FF0000" fill-opacity="0.4" shape-rendering="crispEdges"/>
<path d="M459.555 413.805L459.58 413.759L460.519 412.056" fill="#FF0000" fill-opacity="0.4" shape-rendering="crispEdges"/>
<path d="M460.519 412.056L462.259 408.171L460.519 412.056Z" fill="#FF0000" fill-opacity="0.4" shape-rendering="crispEdges"/>
<path d="M462.259 408.171L463.057 405.478L463.471 404.081" fill="#FF0000" fill-opacity="0.4" shape-rendering="crispEdges"/>
<path d="M463.471 404.081L464.076 399.859L463.471 404.081Z" fill="#FF0000" fill-opacity="0.4" shape-rendering="crispEdges"/>
<path d="M521.86 454.33L523.39 453.948L521.86 454.33Z" fill="#FF0000" fill-opacity="0.4" shape-rendering="crispEdges"/>
<path d="M523.39 453.948L524.944 453.851L523.39 453.948Z" fill="#FF0000" fill-opacity="0.4" shape-rendering="crispEdges"/>
<path d="M524.944 453.851L526.498 454.131L524.944 453.851Z" fill="#FF0000" fill-opacity="0.4" shape-rendering="crispEdges"/>
<path d="M526.498 454.131L527.887 454.884L526.498 454.131Z" fill="#FF0000" fill-opacity="0.4" shape-rendering="crispEdges"/>
<path d="M535.224 460.506L536.367 461.782L535.224 460.506Z" fill="#FF0000" fill-opacity="0.4" shape-rendering="crispEdges"/>
<path d="M536.367 461.782L536.965 463.395L536.367 461.782Z" fill="#FF0000" fill-opacity="0.4" shape-rendering="crispEdges"/>
<path d="M536.965 463.395L537.067 464.762L536.965 463.395Z" fill="#FF0000" fill-opacity="0.4" shape-rendering="crispEdges"/>
<path d="M537.067 464.762L536.878 466.104L537.067 464.762Z" fill="#FF0000" fill-opacity="0.4" shape-rendering="crispEdges"/>
<path d="M516.801 450.031L518.848 449.868L516.801 450.031Z" fill="#FF0000" fill-opacity="0.4" shape-rendering="crispEdges"/>
<path d="M518.848 449.868L520.408 449.909L518.848 449.868Z" fill="#FF0000" fill-opacity="0.4" shape-rendering="crispEdges"/>
<path d="M520.408 449.909L521.914 450.308L520.408 449.909Z" fill="#FF0000" fill-opacity="0.4" shape-rendering="crispEdges"/>
<path d="M521.914 450.308L526.856 452.452L521.914 450.308Z" fill="#FF0000" fill-opacity="0.4" shape-rendering="crispEdges"/>
<path d="M526.856 452.452L531.592 455.037L526.856 452.452Z" fill="#FF0000" fill-opacity="0.4" shape-rendering="crispEdges"/>
<path d="M531.592 455.037L536.081 458.032L531.592 455.037Z" fill="#FF0000" fill-opacity="0.4" shape-rendering="crispEdges"/>
<path d="M539.198 460.798L541.398 463.55L539.198 460.798Z" fill="#FF0000" fill-opacity="0.4" shape-rendering="crispEdges"/>
<path d="M541.398 463.55L543.138 466.615L541.398 463.55Z" fill="#FF0000" fill-opacity="0.4" shape-rendering="crispEdges"/>
<path d="M543.138 466.615L544.392 469.909L543.138 466.615Z" fill="#FF0000" fill-opacity="0.4" shape-rendering="crispEdges"/>
<path d="M544.392 469.909L544.356 470.302L544.392 469.909Z" fill="#FF0000" fill-opacity="0.4" shape-rendering="crispEdges"/>
<path d="M544.356 470.302L544.095 470.614L544.356 470.302Z" fill="#FF0000" fill-opacity="0.4" shape-rendering="crispEdges"/>
<path d="M544.095 470.614L543.694 470.705L544.095 470.614Z" fill="#FF0000" fill-opacity="0.4" shape-rendering="crispEdges"/>
<path d="M543.694 470.705L543.323 470.555L543.694 470.705Z" fill="#FF0000" fill-opacity="0.4" shape-rendering="crispEdges"/>
<path d="M543.323 470.555L540.154 468.26L543.323 470.555Z" fill="#FF0000" fill-opacity="0.4" shape-rendering="crispEdges"/>
<path d="M540.154 468.26L536.878 466.104L540.154 468.26Z" fill="#FF0000" fill-opacity="0.4" shape-rendering="crispEdges"/>
<path d="M536.878 466.104L534.296 464.659L536.878 466.104Z" fill="#FF0000" fill-opacity="0.4" shape-rendering="crispEdges"/>
<path d="M534.296 464.659L531.914 462.922L534.296 464.659Z" fill="#FF0000" fill-opacity="0.4" shape-rendering="crispEdges"/>
<path d="M538.15 466.924L541.201 463.288L538.15 466.924Z" fill="#FF0000" fill-opacity="0.4" shape-rendering="crispEdges"/>
<path d="M552.322 464.059L541.213 455.747L552.322 464.059Z" fill="#FF0000" fill-opacity="0.4" shape-rendering="crispEdges"/>
<path d="M541.213 455.747L529.729 447.924L541.213 455.747Z" fill="#FF0000" fill-opacity="0.4" shape-rendering="crispEdges"/>
<path d="M529.729 447.924L521.36 442.711L517.958 440.592" fill="#FF0000" fill-opacity="0.4" shape-rendering="crispEdges"/>
<path d="M517.958 440.592L509.443 435.267L517.958 440.592Z" fill="#FF0000" fill-opacity="0.4" shape-rendering="crispEdges"/>
<path d="M509.443 435.267L501.236 429.511L509.443 435.267Z" fill="#FF0000" fill-opacity="0.4" shape-rendering="crispEdges"/>
<path d="M501.236 429.511L493.316 423.353L501.236 429.511Z" fill="#FF0000" fill-opacity="0.4" shape-rendering="crispEdges"/>
<path d="M493.316 423.353L466.255 401.573L493.316 423.353Z" fill="#FF0000" fill-opacity="0.4" shape-rendering="crispEdges"/>
<path d="M521.236 442.571L521.36 442.711L527.171 449.273" fill="#FF0000" fill-opacity="0.4" shape-rendering="crispEdges"/>
<path d="M527.171 449.273L533.486 455.622L527.171 449.273Z" fill="#FF0000" fill-opacity="0.4" shape-rendering="crispEdges"/>
<path d="M533.486 455.622L540.144 461.612L533.486 455.622Z" fill="#FF0000" fill-opacity="0.4" shape-rendering="crispEdges"/>
<path d="M485.794 424.029L519.76 452.543L553.379 481.48L550.394 483.012L547.19 484.021L543.873 484.456L543.073 484.423L530.794 472.746L515.824 459.409L500.432 446.594L459.58 413.759L460.519 412.056L462.259 408.171L463.057 405.478L485.794 424.029Z" fill="#FF0000" fill-opacity="0.4" shape-rendering="crispEdges"/>
<path d="M519.76 452.543L485.794 424.029L463.057 405.478L463.471 404.081L464.076 399.859L466.255 401.573L493.316 423.353L501.236 429.511L509.443 435.267L517.958 440.592L521.36 442.711L527.171 449.273L533.486 455.622L540.144 461.612L556.999 475.949L556.836 476.912L556.065 478.697L554.874 480.25L553.379 481.48L519.76 452.543Z" fill="#FF0000" fill-opacity="0.4" shape-rendering="crispEdges"/>
<path d="M555.836 466.797L557.036 473.046L557.163 474.986L556.999 475.949L540.144 461.612L533.486 455.622L527.171 449.273L521.36 442.711L529.729 447.924L541.213 455.747L552.322 464.059L555.836 466.797Z" fill="#FF0000" fill-opacity="0.4" shape-rendering="crispEdges"/>
<path d="M500.432 446.594L515.824 459.409L530.794 472.746L543.073 484.423L540.533 484.317L540.582 484.31L540.647 484.226L540.672 484.135L540.635 484.04L537.574 480.996L535.28 478.715L529.54 473.806L528.692 474.842L524.378 480.11C522.164 480.077 519.949 480.101 517.734 480.183C516.91 480.213 516.086 480.252 515.263 480.298L477.706 452.23L458.762 437.736L453.678 433.84L455.787 427.373L457.516 421.57L458.948 415.693L459.555 413.805L459.58 413.759L500.432 446.594Z" fill="#FF0000" fill-opacity="0.4" shape-rendering="crispEdges"/>
<path d="M529.54 473.806L535.28 478.715L537.574 480.996C536.409 480.857 535.242 480.734 534.074 480.627C530.85 480.331 527.615 480.159 524.378 480.11L528.692 474.842L529.54 473.806Z" fill="#FF0000" fill-opacity="0.4" shape-rendering="crispEdges"/>
<path d="M527.006 483.457L520.24 483.579L515.263 480.298C516.086 480.252 516.91 480.213 517.734 480.183C519.949 480.101 522.164 480.077 524.378 480.11C527.615 480.159 530.85 480.331 534.074 480.627C535.242 480.734 536.409 480.857 537.574 480.996L540.635 484.04L540.672 484.135L540.647 484.226L540.582 484.31L540.533 484.317L540.484 484.324L533.747 483.714L527.006 483.457Z" fill="#FF0000" fill-opacity="0.4" shape-rendering="crispEdges"/>
<path d="M553.379 481.48L519.76 452.543L485.794 424.029L463.057 405.478M553.379 481.48L554.874 480.25L556.065 478.697L556.836 476.912L556.999 475.949M553.379 481.48L550.394 483.012L547.19 484.021L543.873 484.456L543.073 484.423M458.957 413.258L459.58 413.759M466.121 422.855L498.565 448.915L513.856 461.632L528.692 474.842M528.711 474.859L528.692 474.842M515.263 480.298L520.24 483.579L527.006 483.457L533.747 483.714L540.484 484.324M515.263 480.298L477.706 452.23L458.762 437.736M515.263 480.298C516.086 480.252 516.91 480.213 517.734 480.183M537.697 481.011C537.656 481.006 537.615 481.001 537.574 480.996M540.484 484.324L540.582 484.31M540.484 484.324L540.533 484.317M540.582 484.31L540.647 484.226L540.672 484.135L540.635 484.04L537.574 480.996M540.582 484.31L540.533 484.317M524.378 480.11L528.692 474.842M524.378 480.11C522.164 480.077 519.949 480.101 517.734 480.183M524.378 480.11C527.615 480.159 530.85 480.331 534.074 480.627M540.533 484.317L543.073 484.423M459.203 414.956L466.724 421.03L464.594 426.838L461.933 432.415L458.762 437.736M458.762 437.736L453.678 433.84L455.787 427.373L457.516 421.57L458.948 415.693L459.555 413.805L459.58 413.759M521.86 454.33L523.39 453.948L524.944 453.851L526.498 454.131L527.887 454.884L535.224 460.506L536.367 461.782L536.965 463.395L537.067 464.762L536.878 466.104M536.878 466.104L540.154 468.26L543.323 470.555L543.694 470.705L544.095 470.614L544.356 470.302L544.392 469.909L543.138 466.615L541.398 463.55L539.198 460.798M536.878 466.104L534.296 464.659L531.914 462.922M516.801 450.031L518.848 449.868L520.408 449.909L521.914 450.308L526.856 452.452L531.592 455.037L536.081 458.032M538.15 466.924L541.201 463.288M521.236 442.571L521.36 442.711M543.073 484.423L530.794 472.746L515.824 459.409L500.432 446.594L459.58 413.759M463.057 405.478L462.259 408.171L460.519 412.056L459.58 413.759M463.057 405.478L463.471 404.081L464.076 399.859L466.255 401.573L493.316 423.353L501.236 429.511L509.443 435.267L517.958 440.592L521.36 442.711M556.999 475.949L557.163 474.986L557.036 473.046L555.836 466.797L552.322 464.059L541.213 455.747L529.729 447.924L521.36 442.711M556.999 475.949L540.144 461.612L533.486 455.622L527.171 449.273L521.36 442.711M537.574 480.996L535.28 478.715L529.54 473.806L528.692 474.842M537.574 480.996C536.409 480.857 535.242 480.734 534.074 480.627M517.734 480.183C523.187 479.981 528.645 480.129 534.074 480.627" stroke="#FF0000" stroke-width="2" shape-rendering="crispEdges"/>
</g>
<defs>
<filter id="filter0_d_4_2264" x="430.508" y="376.002" width="149.66" height="131.457" filterUnits="userSpaceOnUse" color-interpolation-filters="sRGB">
<feFlood flood-opacity="0" result="BackgroundImageFix"/>
<feColorMatrix in="SourceAlpha" type="matrix" values="0 0 0 0 0 0 0 0 0 0 0 0 0 0 0 0 0 0 127 0" result="hardAlpha"/>
<feOffset/>
<feGaussianBlur stdDeviation="11"/>
<feComposite in2="hardAlpha" operator="out"/>
<feColorMatrix type="matrix" values="0 0 0 0 1 0 0 0 0 0 0 0 0 0 0 0 0 0 1 0"/>
<feBlend mode="normal" in2="BackgroundImageFix" result="effect1_dropShadow_4_2264"/>
<feBlend mode="normal" in="SourceGraphic" in2="effect1_dropShadow_4_2264" result="shape"/>
</filter>
</defs>
</svg>
