<svg width="722" height="722" viewBox="0 0 722 722" fill="none" xmlns="http://www.w3.org/2000/svg">
<g filter="url(#filter0_d_2_628)">
<path d="M294.337 125.747L289.437 139.024L294.337 125.747Z" fill="#FF0000" fill-opacity="0.4" shape-rendering="crispEdges"/>
<path d="M289.437 139.024L286.846 146.759L289.437 139.024Z" fill="#FF0000" fill-opacity="0.4" shape-rendering="crispEdges"/>
<path d="M286.846 146.759L284.589 154.581L286.846 146.759Z" fill="#FF0000" fill-opacity="0.4" shape-rendering="crispEdges"/>
<path d="M284.589 154.581L282.686 162.509L284.589 154.581Z" fill="#FF0000" fill-opacity="0.4" shape-rendering="crispEdges"/>
<path d="M282.686 162.509L276.375 194.255L282.686 162.509Z" fill="#FF0000" fill-opacity="0.4" shape-rendering="crispEdges"/>
<path d="M276.375 194.255L270.611 226.106L276.375 194.255Z" fill="#FF0000" fill-opacity="0.4" shape-rendering="crispEdges"/>
<path d="M268.866 240.313L270.47 242.541L268.866 240.313Z" fill="#FF0000" fill-opacity="0.4" shape-rendering="crispEdges"/>
<path d="M270.47 242.541L272.339 244.54L270.47 242.541Z" fill="#FF0000" fill-opacity="0.4" shape-rendering="crispEdges"/>
<path d="M273.89 243.032L282.862 233.964L273.89 243.032Z" fill="#FF0000" fill-opacity="0.4" shape-rendering="crispEdges"/>
<path d="M282.862 233.964L286.035 230.07L282.862 233.964Z" fill="#FF0000" fill-opacity="0.4" shape-rendering="crispEdges"/>
<path d="M286.035 230.07L288.802 225.878L286.035 230.07Z" fill="#FF0000" fill-opacity="0.4" shape-rendering="crispEdges"/>
<path d="M288.802 225.878L291.111 221.423L288.802 225.878Z" fill="#FF0000" fill-opacity="0.4" shape-rendering="crispEdges"/>
<path d="M291.111 221.423L292.962 216.758L291.111 221.423Z" fill="#FF0000" fill-opacity="0.4" shape-rendering="crispEdges"/>
<path d="M292.962 216.758L311.823 147.513L292.962 216.758Z" fill="#FF0000" fill-opacity="0.4" shape-rendering="crispEdges"/>
<path d="M311.823 147.513L313.057 141.111L311.823 147.513Z" fill="#FF0000" fill-opacity="0.4" shape-rendering="crispEdges"/>
<path d="M313.057 141.111L313.674 134.604L313.057 141.111Z" fill="#FF0000" fill-opacity="0.4" shape-rendering="crispEdges"/>
<path d="M313.674 134.604L313.903 123.256L313.674 134.604Z" fill="#FF0000" fill-opacity="0.4" shape-rendering="crispEdges"/>
<path d="M448.679 244.54L447.939 243.646L448.679 244.54Z" fill="#FF0000" fill-opacity="0.4" shape-rendering="crispEdges"/>
<path d="M447.939 243.646L441.857 239.506L447.939 243.646Z" fill="#FF0000" fill-opacity="0.4" shape-rendering="crispEdges"/>
<path d="M441.857 239.506L435.424 235.946L441.857 239.506Z" fill="#FF0000" fill-opacity="0.4" shape-rendering="crispEdges"/>
<path d="M435.424 235.946L428.69 232.947L435.424 235.946Z" fill="#FF0000" fill-opacity="0.4" shape-rendering="crispEdges"/>
<path d="M428.69 232.947L421.727 230.561L428.69 232.947Z" fill="#FF0000" fill-opacity="0.4" shape-rendering="crispEdges"/>
<path d="M421.727 230.561L414.571 228.79L421.727 230.561Z" fill="#FF0000" fill-opacity="0.4" shape-rendering="crispEdges"/>
<path d="M414.571 228.79L403.29 226.808L414.571 228.79Z" fill="#FF0000" fill-opacity="0.4" shape-rendering="crispEdges"/>
<path d="M403.29 226.808L391.938 225.387L403.29 226.808Z" fill="#FF0000" fill-opacity="0.4" shape-rendering="crispEdges"/>
<path d="M391.938 225.387L380.515 224.545L391.938 225.387Z" fill="#FF0000" fill-opacity="0.4" shape-rendering="crispEdges"/>
<path d="M380.515 224.545L369.058 224.265L380.515 224.545Z" fill="#FF0000" fill-opacity="0.4" shape-rendering="crispEdges"/>
<path d="M351.942 224.265L340.502 224.545L351.942 224.265Z" fill="#FF0000" fill-opacity="0.4" shape-rendering="crispEdges"/>
<path d="M340.502 224.545L329.08 225.387L340.502 224.545Z" fill="#FF0000" fill-opacity="0.4" shape-rendering="crispEdges"/>
<path d="M329.08 225.387L317.711 226.808L329.08 225.387Z" fill="#FF0000" fill-opacity="0.4" shape-rendering="crispEdges"/>
<path d="M317.711 226.808L306.429 228.79L317.711 226.808Z" fill="#FF0000" fill-opacity="0.4" shape-rendering="crispEdges"/>
<path d="M306.429 228.79L299.273 230.561L306.429 228.79Z" fill="#FF0000" fill-opacity="0.4" shape-rendering="crispEdges"/>
<path d="M299.273 230.561L292.31 232.947L299.273 230.561Z" fill="#FF0000" fill-opacity="0.4" shape-rendering="crispEdges"/>
<path d="M292.31 232.947L285.594 235.946L292.31 232.947Z" fill="#FF0000" fill-opacity="0.4" shape-rendering="crispEdges"/>
<path d="M285.594 235.946L279.16 239.506L285.594 235.946Z" fill="#FF0000" fill-opacity="0.4" shape-rendering="crispEdges"/>
<path d="M279.16 239.506L273.061 243.646L279.16 239.506Z" fill="#FF0000" fill-opacity="0.4" shape-rendering="crispEdges"/>
<path d="M273.061 243.646L272.339 244.54L273.061 243.646Z" fill="#FF0000" fill-opacity="0.4" shape-rendering="crispEdges"/>
<path d="M426.663 125.747L431.563 139.024L426.663 125.747Z" fill="#FF0000" fill-opacity="0.4" shape-rendering="crispEdges"/>
<path d="M431.563 139.024L434.154 146.759L431.563 139.024Z" fill="#FF0000" fill-opacity="0.4" shape-rendering="crispEdges"/>
<path d="M434.154 146.759L436.411 154.581L434.154 146.759Z" fill="#FF0000" fill-opacity="0.4" shape-rendering="crispEdges"/>
<path d="M436.411 154.581L438.332 162.509L436.411 154.581Z" fill="#FF0000" fill-opacity="0.4" shape-rendering="crispEdges"/>
<path d="M438.332 162.509L444.625 194.255L438.332 162.509Z" fill="#FF0000" fill-opacity="0.4" shape-rendering="crispEdges"/>
<path d="M444.625 194.255L450.389 226.106L444.625 194.255Z" fill="#FF0000" fill-opacity="0.4" shape-rendering="crispEdges"/>
<path d="M452.134 240.313L450.53 242.541L452.134 240.313Z" fill="#FF0000" fill-opacity="0.4" shape-rendering="crispEdges"/>
<path d="M450.53 242.541L448.679 244.54L450.53 242.541Z" fill="#FF0000" fill-opacity="0.4" shape-rendering="crispEdges"/>
<path d="M296.17 124.344L309.937 121.801L296.17 124.344Z" fill="#FF0000" fill-opacity="0.4" shape-rendering="crispEdges"/>
<path d="M309.937 121.801L313.903 121.233L323.792 119.819" fill="#FF0000" fill-opacity="0.4" shape-rendering="crispEdges"/>
<path d="M323.792 119.819L337.717 118.415L323.792 119.819Z" fill="#FF0000" fill-opacity="0.4" shape-rendering="crispEdges"/>
<path d="M337.717 118.415L351.678 117.574L337.717 118.415Z" fill="#FF0000" fill-opacity="0.4" shape-rendering="crispEdges"/>
<path d="M369.322 117.574L383.301 118.415L369.322 117.574Z" fill="#FF0000" fill-opacity="0.4" shape-rendering="crispEdges"/>
<path d="M383.301 118.415L397.226 119.819L383.301 118.415Z" fill="#FF0000" fill-opacity="0.4" shape-rendering="crispEdges"/>
<path d="M397.226 119.819L407.097 121.231L411.081 121.801" fill="#FF0000" fill-opacity="0.4" shape-rendering="crispEdges"/>
<path d="M411.081 121.801L424.83 124.344L411.081 121.801Z" fill="#FF0000" fill-opacity="0.4" shape-rendering="crispEdges"/>
<path d="M447.11 243.032L438.138 233.964L447.11 243.032Z" fill="#FF0000" fill-opacity="0.4" shape-rendering="crispEdges"/>
<path d="M438.138 233.964L434.965 230.07L438.138 233.964Z" fill="#FF0000" fill-opacity="0.4" shape-rendering="crispEdges"/>
<path d="M434.965 230.07L432.215 225.878L434.965 230.07Z" fill="#FF0000" fill-opacity="0.4" shape-rendering="crispEdges"/>
<path d="M432.215 225.878L429.889 221.423L432.215 225.878Z" fill="#FF0000" fill-opacity="0.4" shape-rendering="crispEdges"/>
<path d="M429.889 221.423L428.055 216.758L429.889 221.423Z" fill="#FF0000" fill-opacity="0.4" shape-rendering="crispEdges"/>
<path d="M428.055 216.758L409.177 147.513L428.055 216.758Z" fill="#FF0000" fill-opacity="0.4" shape-rendering="crispEdges"/>
<path d="M409.177 147.513L407.943 141.111L409.177 147.513Z" fill="#FF0000" fill-opacity="0.4" shape-rendering="crispEdges"/>
<path d="M407.943 141.111L407.326 134.604L407.943 141.111Z" fill="#FF0000" fill-opacity="0.4" shape-rendering="crispEdges"/>
<path d="M407.326 134.604L407.097 123.256L407.326 134.604Z" fill="#FF0000" fill-opacity="0.4" shape-rendering="crispEdges"/>
<path d="M294.337 125.747L289.437 139.024L286.846 146.759L284.589 154.581L282.686 162.509L276.375 194.255L270.611 226.106L268.419 239.506L268.866 240.313L270.47 242.541L272.339 244.54L273.061 243.646L279.16 239.506L285.594 235.946L292.31 232.947L299.273 230.561L306.429 228.79L317.711 226.808L329.08 225.387L340.502 224.545L351.942 224.265L369.058 224.265L380.515 224.545L391.938 225.387L403.29 226.808L414.571 228.79L421.727 230.561L428.69 232.947L435.424 235.946L441.857 239.506L447.939 243.646L448.679 244.54L450.53 242.541L452.134 240.313L452.581 239.506L450.389 226.106L444.625 194.255L438.332 162.509L436.411 154.581L434.154 146.759L431.563 139.024L426.663 125.747L424.83 124.344L411.081 121.801L407.097 121.231L397.226 119.819L383.301 118.415L369.322 117.574L351.678 117.574L337.717 118.415L323.792 119.819L313.903 121.233L309.937 121.801L296.17 124.344L294.337 125.747Z" fill="#FF0000" fill-opacity="0.4" shape-rendering="crispEdges"/>
<path d="M273.89 243.032L282.862 233.964L286.035 230.07L288.802 225.878L291.111 221.423L292.962 216.758L311.823 147.513L313.057 141.111L313.674 134.604L313.903 123.256L313.903 121.233M447.11 243.032L438.138 233.964L434.965 230.07L432.215 225.878L429.889 221.423L428.055 216.758L409.177 147.513L407.943 141.111L407.326 134.604L407.097 123.256L407.097 121.231M313.903 121.233L309.937 121.801L296.17 124.344L294.337 125.747L289.437 139.024L286.846 146.759L284.589 154.581L282.686 162.509L276.375 194.255L270.611 226.106L268.419 239.506L268.866 240.313L270.47 242.541L272.339 244.54L273.061 243.646L279.16 239.506L285.594 235.946L292.31 232.947L299.273 230.561L306.429 228.79L317.711 226.808L329.08 225.387L340.502 224.545L351.942 224.265L369.058 224.265L380.515 224.545L391.938 225.387L403.29 226.808L414.571 228.79L421.727 230.561L428.69 232.947L435.424 235.946L441.857 239.506L447.939 243.646L448.679 244.54L450.53 242.541L452.134 240.313L452.581 239.506L450.389 226.106L444.625 194.255L438.332 162.509L436.411 154.581L434.154 146.759L431.563 139.024L426.663 125.747L424.83 124.344L411.081 121.801L407.097 121.231M313.903 121.233L323.792 119.819L337.717 118.415L351.678 117.574L369.322 117.574L383.301 118.415L397.226 119.819L407.097 121.231" stroke="#FF0000" stroke-width="2" shape-rendering="crispEdges"/>
</g>
<defs>
<filter id="filter0_d_2_628" x="245.376" y="94.5735" width="230.248" height="173.49" filterUnits="userSpaceOnUse" color-interpolation-filters="sRGB">
<feFlood flood-opacity="0" result="BackgroundImageFix"/>
<feColorMatrix in="SourceAlpha" type="matrix" values="0 0 0 0 0 0 0 0 0 0 0 0 0 0 0 0 0 0 127 0" result="hardAlpha"/>
<feOffset/>
<feGaussianBlur stdDeviation="11"/>
<feComposite in2="hardAlpha" operator="out"/>
<feColorMatrix type="matrix" values="0 0 0 0 1 0 0 0 0 0 0 0 0 0 0 0 0 0 1 0"/>
<feBlend mode="normal" in2="BackgroundImageFix" result="effect1_dropShadow_2_628"/>
<feBlend mode="normal" in="SourceGraphic" in2="effect1_dropShadow_2_628" result="shape"/>
</filter>
</defs>
</svg>
