<svg width="722" height="722" viewBox="0 0 722 722" fill="none" xmlns="http://www.w3.org/2000/svg">
<g filter="url(#filter0_d_4_3082)">
<path d="M249.952 260.413L250.058 265.482L250.481 270.551L251.204 277.216L251.433 283.916L251.433 285.196L240.733 290.931L238.336 292.65L236.397 294.895L235.04 297.509L234.353 300.368L234 305.384L234.035 305.524L234.141 305.612L234.282 305.612L251.363 298.754L250.851 331.938L250.411 366.684L250.587 401.411L251.415 436.139L251.486 446.171L251.063 456.186L250.111 466.184L248.771 479.987L247.996 493.861L247.837 507.734L247.943 535.078L247.767 562.422L247.925 569.051L248.595 575.646L249.741 582.171L251.398 588.608L253.513 594.887L256.104 600.99L257.462 603.411L259.154 605.603L261.163 607.515L263.437 609.111L273.273 614.671L283.373 619.722L293.738 624.23L297.915 626.054L302.022 628.071L305.812 629.685L309.831 630.667L313.956 631L407.062 631L411.169 630.667L415.188 629.685L418.995 628.071L423.085 626.054L437.627 619.722L447.745 614.671L457.563 609.111L459.837 607.515L461.846 605.603L463.556 603.411L464.913 600.99L467.505 594.887L469.62 588.608L471.259 582.171L472.422 575.646L473.075 569.051L473.251 562.422L473.057 535.078L473.163 507.734L473.004 493.861L472.246 479.987L470.889 466.184L469.955 456.186L469.514 446.171L469.585 436.139L470.413 401.411L470.607 366.684L470.149 331.938L469.637 298.754L486.718 305.612L486.859 305.612L486.965 305.524L487 305.384L486.647 300.368L485.96 297.509L484.603 294.895L482.681 292.65L480.266 290.931L469.567 285.196L469.567 283.916L469.796 277.216L470.536 270.551L470.959 265.482L471.065 260.413L471.048 259.536L472.088 256.625L472.475 254.187L472.634 251.714L471.841 214.145L471.4 176.558L470.959 168.227L470.008 159.948L468.527 151.722L467.011 145.952L465.037 140.304L463.926 138.042L462.587 135.902L456.699 128.746L450.371 121.976L443.638 115.592L436.534 109.611L432.779 107.26L428.743 105.436L424.477 104.226L420.07 103.612L419.894 103.507L416.21 101.648L412.315 100.297L408.26 99.473L396.027 98.105L383.741 97.2631L371.438 97L360.509 97L349.562 97L337.259 97.2631L324.973 98.105L312.74 99.473L308.703 100.297L304.808 101.648L301.106 103.507L300.93 103.612L296.541 104.226L292.275 105.436L288.221 107.26L284.466 109.611L277.362 115.592L270.629 121.976L264.318 128.746L258.413 135.902L257.074 138.042L255.963 140.304L253.989 145.952L252.473 151.722L251.01 159.948L250.058 168.227L249.618 176.558L249.177 214.145L248.366 251.714L248.525 254.187L248.93 256.625L249.952 259.536L249.952 260.413Z" fill="#FF0000" fill-opacity="0.2" shape-rendering="crispEdges"/>
<path d="M249.952 260.413L250.058 265.482L250.481 270.551L251.204 277.216L251.433 283.916L251.433 285.196L240.733 290.931L238.336 292.65L236.397 294.895L235.04 297.509L234.353 300.368L234 305.384L234.035 305.524L234.141 305.612L234.282 305.612L251.363 298.754L250.851 331.938L250.411 366.684L250.587 401.411L251.415 436.139L251.486 446.171L251.063 456.186L250.111 466.184L248.771 479.987L247.996 493.861L247.837 507.734L247.943 535.078L247.767 562.422L247.925 569.051L248.595 575.646L249.741 582.171L251.398 588.608L253.513 594.887L256.104 600.99L257.462 603.411L259.154 605.603L261.163 607.515L263.437 609.111L273.273 614.671L283.373 619.722L293.738 624.23L297.915 626.054L302.022 628.071L305.812 629.685L309.831 630.667L313.956 631L407.062 631L411.169 630.667L415.188 629.685L418.995 628.071L423.085 626.054L437.627 619.722L447.745 614.671L457.563 609.111L459.837 607.515L461.846 605.603L463.556 603.411L464.913 600.99L467.505 594.887L469.62 588.608L471.259 582.171L472.422 575.646L473.075 569.051L473.251 562.422L473.057 535.078L473.163 507.734L473.004 493.861L472.246 479.987L470.889 466.184L469.955 456.186L469.514 446.171L469.585 436.139L470.413 401.411L470.607 366.684L470.149 331.938L469.637 298.754L486.718 305.612L486.859 305.612L486.965 305.524L487 305.384L486.647 300.368L485.96 297.509L484.603 294.895L482.681 292.65L480.266 290.931L469.567 285.196L469.567 283.916L469.796 277.216L470.536 270.551L470.959 265.482L471.065 260.413L471.048 259.536L472.088 256.625L472.475 254.187L472.634 251.714L471.841 214.145L471.4 176.558L470.959 168.227L470.008 159.948L468.527 151.722L467.011 145.952L465.037 140.304L463.926 138.042L462.587 135.902L456.699 128.746L450.371 121.976L443.638 115.592L436.534 109.611L432.779 107.26L428.743 105.436L424.477 104.226L420.07 103.612L419.894 103.507L416.21 101.648L412.315 100.297L408.26 99.473L396.027 98.105L383.741 97.2631L371.438 97L360.509 97L349.562 97L337.259 97.2631L324.973 98.105L312.74 99.473L308.703 100.297L304.808 101.648L301.106 103.507L300.93 103.612L296.541 104.226L292.275 105.436L288.221 107.26L284.466 109.611L277.362 115.592L270.629 121.976L264.318 128.746L258.413 135.902L257.074 138.042L255.963 140.304L253.989 145.952L252.473 151.722L251.01 159.948L250.058 168.227L249.618 176.558L249.177 214.145L248.366 251.714L248.525 254.187L248.93 256.625L249.952 259.536L249.952 260.413Z" stroke="#FF0000" stroke-width="2" shape-rendering="crispEdges"/>
</g>
<defs>
<filter id="filter0_d_4_3082" x="210.991" y="74" width="299.018" height="580" filterUnits="userSpaceOnUse" color-interpolation-filters="sRGB">
<feFlood flood-opacity="0" result="BackgroundImageFix"/>
<feColorMatrix in="SourceAlpha" type="matrix" values="0 0 0 0 0 0 0 0 0 0 0 0 0 0 0 0 0 0 127 0" result="hardAlpha"/>
<feOffset/>
<feGaussianBlur stdDeviation="11"/>
<feComposite in2="hardAlpha" operator="out"/>
<feColorMatrix type="matrix" values="0 0 0 0 1 0 0 0 0 0 0 0 0 0 0 0 0 0 1 0"/>
<feBlend mode="normal" in2="BackgroundImageFix" result="effect1_dropShadow_4_3082"/>
<feBlend mode="normal" in="SourceGraphic" in2="effect1_dropShadow_4_3082" result="shape"/>
</filter>
</defs>
</svg>
