<svg width="722" height="722" viewBox="0 0 722 722" fill="none" xmlns="http://www.w3.org/2000/svg">
<g filter="url(#filter0_d_4_1037)">
<path d="M256.634 259.97L252.559 263.013L256.634 259.97Z" fill="#FF0000" fill-opacity="0.4" shape-rendering="crispEdges"/>
<path d="M252.559 263.013L247.288 267.155L252.559 263.013Z" fill="#FF0000" fill-opacity="0.4" shape-rendering="crispEdges"/>
<path d="M247.288 267.155L241.725 270.897L247.288 267.155Z" fill="#FF0000" fill-opacity="0.4" shape-rendering="crispEdges"/>
<path d="M256.048 265.489L243.401 273.218L256.048 265.489Z" fill="#FF0000" fill-opacity="0.4" shape-rendering="crispEdges"/>
<path d="M231.58 280.514L194.045 304.049L231.58 280.514Z" fill="#FF0000" fill-opacity="0.4" shape-rendering="crispEdges"/>
<path d="M194.045 304.049L156.871 328.232L194.045 304.049Z" fill="#FF0000" fill-opacity="0.4" shape-rendering="crispEdges"/>
<path d="M259.338 275.197L259.276 271.62L259.338 275.197Z" fill="#FF0000" fill-opacity="0.4" shape-rendering="crispEdges"/>
<path d="M259.276 271.62L259.369 267.53L259.276 271.62Z" fill="#FF0000" fill-opacity="0.4" shape-rendering="crispEdges"/>
<path d="M259.369 267.53L259.716 263.449L259.369 267.53Z" fill="#FF0000" fill-opacity="0.4" shape-rendering="crispEdges"/>
<path d="M259.716 263.449L259.701 263.209L259.655 262.489" fill="#FF0000" fill-opacity="0.4" shape-rendering="crispEdges"/>
<path d="M259.655 262.489L259.255 261.617L259.655 262.489Z" fill="#FF0000" fill-opacity="0.4" shape-rendering="crispEdges"/>
<path d="M259.255 261.617L257.653 259.25L259.255 261.617Z" fill="#FF0000" fill-opacity="0.4" shape-rendering="crispEdges"/>
<path d="M240.72 286.278L241.303 290.922L240.72 286.278Z" fill="#FF0000" fill-opacity="0.4" shape-rendering="crispEdges"/>
<path d="M241.303 290.922L241.447 293.305L241.303 290.922Z" fill="#FF0000" fill-opacity="0.4" shape-rendering="crispEdges"/>
<path d="M241.447 293.305L241.265 295.663L241.447 293.305Z" fill="#FF0000" fill-opacity="0.4" shape-rendering="crispEdges"/>
<path d="M241.345 285.888L209.881 305.073L241.345 285.888Z" fill="#FF0000" fill-opacity="0.4" shape-rendering="crispEdges"/>
<path d="M165.293 358.217L178.241 349.448L165.293 358.217Z" fill="#FF0000" fill-opacity="0.4" shape-rendering="crispEdges"/>
<path d="M178.241 349.448L190.923 340.285L178.241 349.448Z" fill="#FF0000" fill-opacity="0.4" shape-rendering="crispEdges"/>
<path d="M190.923 340.285L203.326 330.775L190.923 340.285Z" fill="#FF0000" fill-opacity="0.4" shape-rendering="crispEdges"/>
<path d="M203.326 330.775L215.433 320.89L203.326 330.775Z" fill="#FF0000" fill-opacity="0.4" shape-rendering="crispEdges"/>
<path d="M215.433 320.89L233.283 304.968L215.433 320.89Z" fill="#FF0000" fill-opacity="0.4" shape-rendering="crispEdges"/>
<path d="M233.283 304.968L240.813 297.845L250.664 288.528" fill="#FF0000" fill-opacity="0.4" shape-rendering="crispEdges"/>
<path d="M241.119 289.5L213.229 306.495L241.119 289.5Z" fill="#FF0000" fill-opacity="0.4" shape-rendering="crispEdges"/>
<path d="M164.587 357.12L177.496 348.354L164.587 357.12Z" fill="#FF0000" fill-opacity="0.4" shape-rendering="crispEdges"/>
<path d="M177.496 348.354L190.133 339.219L177.496 348.354Z" fill="#FF0000" fill-opacity="0.4" shape-rendering="crispEdges"/>
<path d="M190.133 339.219L202.492 329.738L190.133 339.219Z" fill="#FF0000" fill-opacity="0.4" shape-rendering="crispEdges"/>
<path d="M202.492 329.738L214.579 319.886L202.492 329.738Z" fill="#FF0000" fill-opacity="0.4" shape-rendering="crispEdges"/>
<path d="M214.579 319.886L228.058 307.96L214.579 319.886Z" fill="#FF0000" fill-opacity="0.4" shape-rendering="crispEdges"/>
<path d="M228.058 307.96L241.248 295.736L228.058 307.96Z" fill="#FF0000" fill-opacity="0.4" shape-rendering="crispEdges"/>
<path d="M156.65 362.158L158.078 341.526L156.65 362.158Z" fill="#FF0000" fill-opacity="0.4" shape-rendering="crispEdges"/>
<path d="M158.078 341.526L158.001 341.137L158.078 341.526Z" fill="#FF0000" fill-opacity="0.4" shape-rendering="crispEdges"/>
<path d="M158.001 341.137L157.721 340.855L158.001 341.137Z" fill="#FF0000" fill-opacity="0.4" shape-rendering="crispEdges"/>
<path d="M157.721 340.855L157.349 340.755L157.721 340.855Z" fill="#FF0000" fill-opacity="0.4" shape-rendering="crispEdges"/>
<path d="M157.349 340.755L156.399 340.89L157.349 340.755Z" fill="#FF0000" fill-opacity="0.4" shape-rendering="crispEdges"/>
<path d="M156.399 340.89L155.523 341.209L156.399 340.89Z" fill="#FF0000" fill-opacity="0.4" shape-rendering="crispEdges"/>
<path d="M155.523 341.209L147.363 346.385L147.347 346.395" fill="#FF0000" fill-opacity="0.4" shape-rendering="crispEdges"/>
<path d="M151.343 367.071L151.029 365.666L149.56 359.082" fill="#FF0000" fill-opacity="0.4" shape-rendering="crispEdges"/>
<path d="M149.56 359.082L148.394 353.14L149.56 359.082Z" fill="#FF0000" fill-opacity="0.4" shape-rendering="crispEdges"/>
<path d="M148.394 353.14L147.531 347.153L148.394 353.14Z" fill="#FF0000" fill-opacity="0.4" shape-rendering="crispEdges"/>
<path d="M147.531 347.153L147.363 346.385L147.107 345.215" fill="#FF0000" fill-opacity="0.4" shape-rendering="crispEdges"/>
<path d="M147.107 345.215L146.315 343.383L147.107 345.215Z" fill="#FF0000" fill-opacity="0.4" shape-rendering="crispEdges"/>
<path d="M146.315 343.383L144.954 339.349L146.315 343.383Z" fill="#FF0000" fill-opacity="0.4" shape-rendering="crispEdges"/>
<path d="M144.954 339.349L144.412 336.564L144.139 335.162" fill="#FF0000" fill-opacity="0.4" shape-rendering="crispEdges"/>
<path d="M144.139 335.162L143.94 330.901L144.139 335.162Z" fill="#FF0000" fill-opacity="0.4" shape-rendering="crispEdges"/>
<path d="M173.034 317.623L171.065 317.086L173.034 317.623Z" fill="#FF0000" fill-opacity="0.4" shape-rendering="crispEdges"/>
<path d="M171.065 317.086L169.034 317.211L171.065 317.086Z" fill="#FF0000" fill-opacity="0.4" shape-rendering="crispEdges"/>
<path d="M169.034 317.211L167.16 317.985L169.034 317.211Z" fill="#FF0000" fill-opacity="0.4" shape-rendering="crispEdges"/>
<path d="M159.245 322.926L158.325 323.771L159.245 322.926Z" fill="#FF0000" fill-opacity="0.4" shape-rendering="crispEdges"/>
<path d="M158.325 323.771L157.787 324.896L158.325 323.771Z" fill="#FF0000" fill-opacity="0.4" shape-rendering="crispEdges"/>
<path d="M157.787 324.896L157.583 326.291L157.787 324.896Z" fill="#FF0000" fill-opacity="0.4" shape-rendering="crispEdges"/>
<path d="M157.583 326.291L157.68 327.706L157.583 326.291Z" fill="#FF0000" fill-opacity="0.4" shape-rendering="crispEdges"/>
<path d="M178.215 314.264C174.497 313.986 170.773 314.628 167.371 316.131C167.289 316.167 167.207 316.203 167.126 316.241" fill="#FF0000" fill-opacity="0.4" shape-rendering="crispEdges"/>
<path d="M151.564 326.095C150.844 326.956 150.34 327.979 150.097 329.08C149.838 330.253 149.883 331.474 150.228 332.628" fill="#FF0000" fill-opacity="0.4" shape-rendering="crispEdges"/>
<path d="M249.676 277.01L249.631 277.051L246.312 280.066" fill="#FF0000" fill-opacity="0.4" shape-rendering="crispEdges"/>
<path d="M246.312 280.066L242.604 282.671L246.312 280.066Z" fill="#FF0000" fill-opacity="0.4" shape-rendering="crispEdges"/>
<path d="M242.604 282.671L239.712 284.207L239.485 284.327L238.597 284.799" fill="#FF0000" fill-opacity="0.4" shape-rendering="crispEdges"/>
<path d="M238.597 284.799L237.897 284.903L238.597 284.799Z" fill="#FF0000" fill-opacity="0.4" shape-rendering="crispEdges"/>
<path d="M237.897 284.903L237.242 284.647L237.897 284.903Z" fill="#FF0000" fill-opacity="0.4" shape-rendering="crispEdges"/>
<path d="M237.242 284.647L229.098 278.697L214.239 267.838" fill="#FF0000" fill-opacity="0.4" shape-rendering="crispEdges"/>
<path d="M214.164 267.718L214.183 267.582L214.164 267.718Z" fill="#FF0000" fill-opacity="0.4" shape-rendering="crispEdges"/>
<path d="M214.183 267.582L214.283 267.478L214.183 267.582Z" fill="#FF0000" fill-opacity="0.4" shape-rendering="crispEdges"/>
<path d="M214.283 267.478L218.725 265.12L214.283 267.478Z" fill="#FF0000" fill-opacity="0.4" shape-rendering="crispEdges"/>
<path d="M218.725 265.12L221.514 264.19L218.725 265.12Z" fill="#FF0000" fill-opacity="0.4" shape-rendering="crispEdges"/>
<path d="M221.514 264.19L224.45 263.957L221.514 264.19Z" fill="#FF0000" fill-opacity="0.4" shape-rendering="crispEdges"/>
<path d="M224.45 263.957L227.381 264.413L224.45 263.957Z" fill="#FF0000" fill-opacity="0.4" shape-rendering="crispEdges"/>
<path d="M227.381 264.413L230.108 265.536L227.381 264.413Z" fill="#FF0000" fill-opacity="0.4" shape-rendering="crispEdges"/>
<path d="M230.108 265.536L240.612 271.592L242.706 272.8" fill="#FF0000" fill-opacity="0.4" shape-rendering="crispEdges"/>
<path d="M242.706 272.8L249.631 277.051L252.827 279.012L255.109 280.413" fill="#FF0000" fill-opacity="0.4" shape-rendering="crispEdges"/>
<path d="M255.109 280.413L255.407 280.726L255.109 280.413Z" fill="#FF0000" fill-opacity="0.4" shape-rendering="crispEdges"/>
<path d="M255.407 280.726L255.41 281.16L255.407 280.726Z" fill="#FF0000" fill-opacity="0.4" shape-rendering="crispEdges"/>
<path d="M255.41 281.16L255.152 281.509L255.41 281.16Z" fill="#FF0000" fill-opacity="0.4" shape-rendering="crispEdges"/>
<path d="M245.243 287.694L244.501 287.929L245.243 287.694Z" fill="#FF0000" fill-opacity="0.4" shape-rendering="crispEdges"/>
<path d="M244.501 287.929L243.735 287.763L244.501 287.929Z" fill="#FF0000" fill-opacity="0.4" shape-rendering="crispEdges"/>
<path d="M243.735 287.763L241.63 286.147L243.735 287.763Z" fill="#FF0000" fill-opacity="0.4" shape-rendering="crispEdges"/>
<path d="M241.63 286.147L239.758 284.24L241.63 286.147Z" fill="#FF0000" fill-opacity="0.4" shape-rendering="crispEdges"/>
<path d="M239.485 284.327L215.341 266.921L239.485 284.327Z" fill="#FF0000" fill-opacity="0.4" shape-rendering="crispEdges"/>
<path d="M143.94 330.901L151.564 326.095L153.477 324.889L167.371 316.131L170.974 313.859" fill="#FF0000" fill-opacity="0.4" shape-rendering="crispEdges"/>
<path d="M170.974 313.859L200.681 295.834L170.974 313.859Z" fill="#FF0000" fill-opacity="0.4" shape-rendering="crispEdges"/>
<path d="M200.681 295.834L229.098 278.697L229.101 278.695" fill="#FF0000" fill-opacity="0.4" shape-rendering="crispEdges"/>
<path d="M246.312 280.066L242.604 282.671L239.712 284.207L239.758 284.24L241.63 286.147L243.735 287.763L244.501 287.929L245.243 287.694L255.152 281.509L255.41 281.16L255.407 280.726L255.109 280.413L252.827 279.012L249.631 277.051L246.312 280.066Z" fill="#FF0000" fill-opacity="0.4" shape-rendering="crispEdges"/>
<path d="M242.604 282.671L246.312 280.066L249.631 277.051L242.706 272.8L240.612 271.592L230.108 265.536L227.381 264.413L224.45 263.957L221.514 264.19L218.725 265.12L214.283 267.478L214.183 267.582L214.164 267.718L214.239 267.838L229.098 278.697L237.242 284.647L237.897 284.903L238.597 284.799L239.485 284.327L239.712 284.207L242.604 282.671Z" fill="#FF0000" fill-opacity="0.4" shape-rendering="crispEdges"/>
<path d="M156.65 362.158L158.078 341.526L158.001 341.137L157.721 340.855L157.349 340.755L156.399 340.89L155.523 341.209L147.363 346.385L147.531 347.153L148.394 353.14L149.56 359.082L151.029 365.666L156.65 362.158Z" fill="#FF0000" fill-opacity="0.4" shape-rendering="crispEdges"/>
<path d="M256.634 259.97L252.559 263.013L247.288 267.155L241.725 270.897L240.612 271.592L242.706 272.8L249.631 277.051L252.827 279.012L259.338 275.197L259.276 271.62L259.369 267.53L259.716 263.449L259.701 263.209L259.655 262.489L259.255 261.617L257.653 259.25L256.634 259.97Z" fill="#FF0000" fill-opacity="0.4" shape-rendering="crispEdges"/>
<path d="M165.293 358.217L178.241 349.448L190.923 340.285L203.326 330.775L215.433 320.89L233.283 304.968L240.813 297.845L250.664 288.528L260.242 278.905L259.338 275.197L252.827 279.012L255.109 280.413L255.407 280.726L255.41 281.16L255.152 281.509L245.243 287.694L244.501 287.929L243.735 287.763L241.63 286.147L239.758 284.24L239.712 284.207L239.485 284.327L238.597 284.799L237.897 284.903L237.242 284.647L229.098 278.697L200.681 295.834L170.974 313.859L167.371 316.131L153.477 324.889L151.564 326.095L143.94 330.901L144.139 335.162L144.412 336.564L144.954 339.349L146.315 343.383L147.107 345.215L147.363 346.385L155.523 341.209L156.399 340.89L157.349 340.755L157.721 340.855L158.001 341.137L158.078 341.526L156.65 362.158L151.029 365.666L151.343 367.071L165.293 358.217Z" fill="#FF0000" fill-opacity="0.4" shape-rendering="crispEdges"/>
<path d="M243.401 273.218L256.048 265.489L259.701 263.209M231.58 280.514L194.045 304.049L156.871 328.232L144.412 336.564M259.338 275.197L259.276 271.62L259.369 267.53L259.716 263.449L259.701 263.209M259.338 275.197L260.242 278.905L250.664 288.528L240.813 297.845M259.338 275.197L252.827 279.012M240.72 286.278L241.303 290.922L241.447 293.305L241.265 295.663L240.813 297.845M241.345 285.888L209.881 305.073L147.754 344.728L147.107 345.215M241.119 289.5L213.229 306.495L158.078 341.526M158.078 341.526L156.65 362.158M158.078 341.526L158.001 341.137L157.721 340.855L157.349 340.755L156.399 340.89L155.523 341.209L147.363 346.385M241.248 295.736L228.058 307.96L214.579 319.886L202.492 329.738L190.133 339.219L177.496 348.354L164.587 357.12L156.65 362.158M156.65 362.158L151.029 365.666M147.347 346.395L147.363 346.385M147.107 345.215L146.315 343.383L144.954 339.349L144.412 336.564M147.107 345.215L147.363 346.385M173.034 317.623L171.065 317.086L169.034 317.211L167.16 317.985L159.245 322.926L158.325 323.771L157.787 324.896L157.583 326.291L157.68 327.706M178.215 314.264C174.497 313.986 170.773 314.628 167.371 316.131M167.126 316.241C167.207 316.203 167.289 316.167 167.371 316.131M150.228 332.628C149.883 331.474 149.838 330.253 150.097 329.08C150.34 327.979 150.844 326.956 151.564 326.095M155.685 329.014L153.477 324.889M249.676 277.01L249.631 277.051M215.341 266.921L239.485 284.327M229.101 278.695L229.098 278.697M144.412 336.564L144.139 335.162L143.94 330.901L151.564 326.095M151.029 365.666L151.343 367.071L165.293 358.217L178.241 349.448L190.923 340.285L203.326 330.775L215.433 320.89L233.283 304.968L240.813 297.845M151.029 365.666L149.56 359.082L148.394 353.14L147.531 347.153L147.363 346.385M259.701 263.209L259.655 262.489L259.255 261.617L257.653 259.25L256.634 259.97L252.559 263.013L247.288 267.155L241.725 270.897L240.612 271.592M153.477 324.889L151.564 326.095M153.477 324.889L167.371 316.131M249.631 277.051L246.312 280.066L242.604 282.671L239.712 284.207M249.631 277.051L242.706 272.8L240.612 271.592M249.631 277.051L252.827 279.012M229.098 278.697L214.239 267.838L214.164 267.718L214.183 267.582L214.283 267.478L218.725 265.12L221.514 264.19L224.45 263.957L227.381 264.413L230.108 265.536L240.612 271.592M229.098 278.697L237.242 284.647L237.897 284.903L238.597 284.799L239.485 284.327M229.098 278.697L200.681 295.834L170.974 313.859L167.371 316.131M239.485 284.327L239.712 284.207M239.712 284.207L239.758 284.24L241.63 286.147L243.735 287.763L244.501 287.929L245.243 287.694L255.152 281.509L255.41 281.16L255.407 280.726L255.109 280.413L252.827 279.012" stroke="#FF0000" stroke-width="2" shape-rendering="crispEdges"/>
</g>
<defs>
<filter id="filter0_d_4_1037" x="120.914" y="235.845" width="162.432" height="154.833" filterUnits="userSpaceOnUse" color-interpolation-filters="sRGB">
<feFlood flood-opacity="0" result="BackgroundImageFix"/>
<feColorMatrix in="SourceAlpha" type="matrix" values="0 0 0 0 0 0 0 0 0 0 0 0 0 0 0 0 0 0 127 0" result="hardAlpha"/>
<feOffset/>
<feGaussianBlur stdDeviation="11"/>
<feComposite in2="hardAlpha" operator="out"/>
<feColorMatrix type="matrix" values="0 0 0 0 1 0 0 0 0 0 0 0 0 0 0 0 0 0 1 0"/>
<feBlend mode="normal" in2="BackgroundImageFix" result="effect1_dropShadow_4_1037"/>
<feBlend mode="normal" in="SourceGraphic" in2="effect1_dropShadow_4_1037" result="shape"/>
</filter>
</defs>
</svg>
