<svg width="722" height="722" viewBox="0 0 722 722" fill="none" xmlns="http://www.w3.org/2000/svg">
<g filter="url(#filter0_d_4_1446)">
<path d="M463.683 259.97L467.759 263.013L463.683 259.97Z" fill="#FF0000" fill-opacity="0.4" shape-rendering="crispEdges"/>
<path d="M467.759 263.013L473.03 267.155L467.759 263.013Z" fill="#FF0000" fill-opacity="0.4" shape-rendering="crispEdges"/>
<path d="M473.03 267.155L478.592 270.897L473.03 267.155Z" fill="#FF0000" fill-opacity="0.4" shape-rendering="crispEdges"/>
<path d="M464.269 265.489L476.916 273.218L464.269 265.489Z" fill="#FF0000" fill-opacity="0.4" shape-rendering="crispEdges"/>
<path d="M488.737 280.514L526.273 304.049L488.737 280.514Z" fill="#FF0000" fill-opacity="0.4" shape-rendering="crispEdges"/>
<path d="M526.273 304.049L563.446 328.232L526.273 304.049Z" fill="#FF0000" fill-opacity="0.4" shape-rendering="crispEdges"/>
<path d="M460.98 275.197L461.042 271.62L460.98 275.197Z" fill="#FF0000" fill-opacity="0.4" shape-rendering="crispEdges"/>
<path d="M461.042 271.62L460.948 267.53L461.042 271.62Z" fill="#FF0000" fill-opacity="0.4" shape-rendering="crispEdges"/>
<path d="M460.948 267.53L460.601 263.449L460.948 267.53Z" fill="#FF0000" fill-opacity="0.4" shape-rendering="crispEdges"/>
<path d="M460.601 263.449L460.617 263.209L460.662 262.489" fill="#FF0000" fill-opacity="0.4" shape-rendering="crispEdges"/>
<path d="M460.662 262.489L461.062 261.617L460.662 262.489Z" fill="#FF0000" fill-opacity="0.4" shape-rendering="crispEdges"/>
<path d="M461.062 261.617L462.664 259.25L461.062 261.617Z" fill="#FF0000" fill-opacity="0.4" shape-rendering="crispEdges"/>
<path d="M479.597 286.278L479.014 290.922L479.597 286.278Z" fill="#FF0000" fill-opacity="0.4" shape-rendering="crispEdges"/>
<path d="M479.014 290.922L478.87 293.305L479.014 290.922Z" fill="#FF0000" fill-opacity="0.4" shape-rendering="crispEdges"/>
<path d="M478.87 293.305L479.052 295.663L478.87 293.305Z" fill="#FF0000" fill-opacity="0.4" shape-rendering="crispEdges"/>
<path d="M478.972 285.888L510.437 305.073L478.972 285.888Z" fill="#FF0000" fill-opacity="0.4" shape-rendering="crispEdges"/>
<path d="M555.025 358.217L542.076 349.448L555.025 358.217Z" fill="#FF0000" fill-opacity="0.4" shape-rendering="crispEdges"/>
<path d="M542.076 349.448L529.394 340.285L542.076 349.448Z" fill="#FF0000" fill-opacity="0.4" shape-rendering="crispEdges"/>
<path d="M529.394 340.285L516.991 330.775L529.394 340.285Z" fill="#FF0000" fill-opacity="0.4" shape-rendering="crispEdges"/>
<path d="M516.991 330.775L504.884 320.89L516.991 330.775Z" fill="#FF0000" fill-opacity="0.4" shape-rendering="crispEdges"/>
<path d="M504.884 320.89L487.034 304.968L504.884 320.89Z" fill="#FF0000" fill-opacity="0.4" shape-rendering="crispEdges"/>
<path d="M487.034 304.968L479.504 297.845L469.653 288.528" fill="#FF0000" fill-opacity="0.4" shape-rendering="crispEdges"/>
<path d="M479.199 289.5L507.089 306.495L479.199 289.5Z" fill="#FF0000" fill-opacity="0.4" shape-rendering="crispEdges"/>
<path d="M555.73 357.12L542.821 348.354L555.73 357.12Z" fill="#FF0000" fill-opacity="0.4" shape-rendering="crispEdges"/>
<path d="M542.821 348.354L530.184 339.219L542.821 348.354Z" fill="#FF0000" fill-opacity="0.4" shape-rendering="crispEdges"/>
<path d="M530.184 339.219L517.825 329.738L530.184 339.219Z" fill="#FF0000" fill-opacity="0.4" shape-rendering="crispEdges"/>
<path d="M517.825 329.738L505.738 319.886L517.825 329.738Z" fill="#FF0000" fill-opacity="0.4" shape-rendering="crispEdges"/>
<path d="M505.738 319.886L492.259 307.96L505.738 319.886Z" fill="#FF0000" fill-opacity="0.4" shape-rendering="crispEdges"/>
<path d="M492.259 307.96L479.069 295.736L492.259 307.96Z" fill="#FF0000" fill-opacity="0.4" shape-rendering="crispEdges"/>
<path d="M563.668 362.158L562.239 341.526L563.668 362.158Z" fill="#FF0000" fill-opacity="0.4" shape-rendering="crispEdges"/>
<path d="M562.239 341.526L562.316 341.137L562.239 341.526Z" fill="#FF0000" fill-opacity="0.4" shape-rendering="crispEdges"/>
<path d="M562.316 341.137L562.596 340.855L562.316 341.137Z" fill="#FF0000" fill-opacity="0.4" shape-rendering="crispEdges"/>
<path d="M562.596 340.855L562.969 340.755L562.596 340.855Z" fill="#FF0000" fill-opacity="0.4" shape-rendering="crispEdges"/>
<path d="M562.969 340.755L563.918 340.89L562.969 340.755Z" fill="#FF0000" fill-opacity="0.4" shape-rendering="crispEdges"/>
<path d="M563.918 340.89L564.794 341.209L563.918 340.89Z" fill="#FF0000" fill-opacity="0.4" shape-rendering="crispEdges"/>
<path d="M564.794 341.209L572.954 346.385L572.97 346.395" fill="#FF0000" fill-opacity="0.4" shape-rendering="crispEdges"/>
<path d="M568.975 367.071L569.288 365.666L570.757 359.082" fill="#FF0000" fill-opacity="0.4" shape-rendering="crispEdges"/>
<path d="M570.757 359.082L571.923 353.14L570.757 359.082Z" fill="#FF0000" fill-opacity="0.4" shape-rendering="crispEdges"/>
<path d="M571.923 353.14L572.786 347.153L571.923 353.14Z" fill="#FF0000" fill-opacity="0.4" shape-rendering="crispEdges"/>
<path d="M572.786 347.153L572.954 346.385L573.21 345.215" fill="#FF0000" fill-opacity="0.4" shape-rendering="crispEdges"/>
<path d="M573.21 345.215L574.003 343.383L573.21 345.215Z" fill="#FF0000" fill-opacity="0.4" shape-rendering="crispEdges"/>
<path d="M574.003 343.383L575.363 339.349L574.003 343.383Z" fill="#FF0000" fill-opacity="0.4" shape-rendering="crispEdges"/>
<path d="M575.363 339.349L575.905 336.564L576.178 335.162" fill="#FF0000" fill-opacity="0.4" shape-rendering="crispEdges"/>
<path d="M576.178 335.162L576.377 330.901L576.178 335.162Z" fill="#FF0000" fill-opacity="0.4" shape-rendering="crispEdges"/>
<path d="M547.284 317.623L549.252 317.086L547.284 317.623Z" fill="#FF0000" fill-opacity="0.4" shape-rendering="crispEdges"/>
<path d="M549.252 317.086L551.283 317.211L549.252 317.086Z" fill="#FF0000" fill-opacity="0.4" shape-rendering="crispEdges"/>
<path d="M551.283 317.211L553.157 317.985L551.283 317.211Z" fill="#FF0000" fill-opacity="0.4" shape-rendering="crispEdges"/>
<path d="M561.072 322.926L561.992 323.771L561.072 322.926Z" fill="#FF0000" fill-opacity="0.4" shape-rendering="crispEdges"/>
<path d="M561.992 323.771L562.53 324.896L561.992 323.771Z" fill="#FF0000" fill-opacity="0.4" shape-rendering="crispEdges"/>
<path d="M562.53 324.896L562.734 326.291L562.53 324.896Z" fill="#FF0000" fill-opacity="0.4" shape-rendering="crispEdges"/>
<path d="M562.734 326.291L562.637 327.706L562.734 326.291Z" fill="#FF0000" fill-opacity="0.4" shape-rendering="crispEdges"/>
<path d="M542.102 314.264C545.82 313.986 549.544 314.628 552.946 316.131C553.028 316.167 553.11 316.203 553.191 316.241" fill="#FF0000" fill-opacity="0.4" shape-rendering="crispEdges"/>
<path d="M568.753 326.095C569.473 326.956 569.977 327.979 570.22 329.08C570.479 330.253 570.434 331.474 570.089 332.628" fill="#FF0000" fill-opacity="0.4" shape-rendering="crispEdges"/>
<path d="M470.641 277.01L470.686 277.051L474.005 280.066" fill="#FF0000" fill-opacity="0.4" shape-rendering="crispEdges"/>
<path d="M474.005 280.066L477.713 282.671L474.005 280.066Z" fill="#FF0000" fill-opacity="0.4" shape-rendering="crispEdges"/>
<path d="M477.713 282.671L480.605 284.207L480.832 284.327L481.72 284.799" fill="#FF0000" fill-opacity="0.4" shape-rendering="crispEdges"/>
<path d="M481.72 284.799L482.42 284.903L481.72 284.799Z" fill="#FF0000" fill-opacity="0.4" shape-rendering="crispEdges"/>
<path d="M482.42 284.903L483.076 284.647L482.42 284.903Z" fill="#FF0000" fill-opacity="0.4" shape-rendering="crispEdges"/>
<path d="M483.076 284.647L491.219 278.697L506.078 267.838" fill="#FF0000" fill-opacity="0.4" shape-rendering="crispEdges"/>
<path d="M506.153 267.718L506.135 267.582L506.153 267.718Z" fill="#FF0000" fill-opacity="0.4" shape-rendering="crispEdges"/>
<path d="M506.135 267.582L506.034 267.478L506.135 267.582Z" fill="#FF0000" fill-opacity="0.4" shape-rendering="crispEdges"/>
<path d="M506.034 267.478L501.592 265.12L506.034 267.478Z" fill="#FF0000" fill-opacity="0.4" shape-rendering="crispEdges"/>
<path d="M501.592 265.12L498.803 264.19L501.592 265.12Z" fill="#FF0000" fill-opacity="0.4" shape-rendering="crispEdges"/>
<path d="M498.803 264.19L495.868 263.957L498.803 264.19Z" fill="#FF0000" fill-opacity="0.4" shape-rendering="crispEdges"/>
<path d="M495.868 263.957L492.936 264.413L495.868 263.957Z" fill="#FF0000" fill-opacity="0.4" shape-rendering="crispEdges"/>
<path d="M492.936 264.413L490.209 265.536L492.936 264.413Z" fill="#FF0000" fill-opacity="0.4" shape-rendering="crispEdges"/>
<path d="M490.209 265.536L479.705 271.592L477.611 272.8" fill="#FF0000" fill-opacity="0.4" shape-rendering="crispEdges"/>
<path d="M477.611 272.8L470.686 277.051L467.491 279.012L465.208 280.413" fill="#FF0000" fill-opacity="0.4" shape-rendering="crispEdges"/>
<path d="M465.208 280.413L464.91 280.726L465.208 280.413Z" fill="#FF0000" fill-opacity="0.4" shape-rendering="crispEdges"/>
<path d="M464.91 280.726L464.907 281.16L464.91 280.726Z" fill="#FF0000" fill-opacity="0.4" shape-rendering="crispEdges"/>
<path d="M464.907 281.16L465.165 281.509L464.907 281.16Z" fill="#FF0000" fill-opacity="0.4" shape-rendering="crispEdges"/>
<path d="M475.074 287.694L475.817 287.929L475.074 287.694Z" fill="#FF0000" fill-opacity="0.4" shape-rendering="crispEdges"/>
<path d="M475.817 287.929L476.582 287.763L475.817 287.929Z" fill="#FF0000" fill-opacity="0.4" shape-rendering="crispEdges"/>
<path d="M476.582 287.763L478.687 286.147L476.582 287.763Z" fill="#FF0000" fill-opacity="0.4" shape-rendering="crispEdges"/>
<path d="M478.687 286.147L480.559 284.24L478.687 286.147Z" fill="#FF0000" fill-opacity="0.4" shape-rendering="crispEdges"/>
<path d="M480.832 284.327L504.976 266.921L480.832 284.327Z" fill="#FF0000" fill-opacity="0.4" shape-rendering="crispEdges"/>
<path d="M576.377 330.901L568.753 326.095L566.84 324.889L552.946 316.131L549.344 313.859" fill="#FF0000" fill-opacity="0.4" shape-rendering="crispEdges"/>
<path d="M549.344 313.859L519.636 295.834L549.344 313.859Z" fill="#FF0000" fill-opacity="0.4" shape-rendering="crispEdges"/>
<path d="M519.636 295.834L491.219 278.697L491.216 278.695" fill="#FF0000" fill-opacity="0.4" shape-rendering="crispEdges"/>
<path d="M474.005 280.066L477.713 282.671L480.605 284.207L480.559 284.24L478.687 286.147L476.582 287.763L475.817 287.929L475.074 287.694L465.165 281.509L464.907 281.16L464.91 280.726L465.208 280.413L467.491 279.012L470.686 277.051L474.005 280.066Z" fill="#FF0000" fill-opacity="0.4" shape-rendering="crispEdges"/>
<path d="M477.713 282.671L474.005 280.066L470.686 277.051L477.611 272.8L479.705 271.592L490.209 265.536L492.936 264.413L495.868 263.957L498.803 264.19L501.592 265.12L506.034 267.478L506.135 267.582L506.153 267.718L506.078 267.838L491.219 278.697L483.076 284.647L482.42 284.903L481.72 284.799L480.832 284.327L480.605 284.207L477.713 282.671Z" fill="#FF0000" fill-opacity="0.4" shape-rendering="crispEdges"/>
<path d="M563.668 362.158L562.239 341.526L562.316 341.137L562.596 340.855L562.969 340.755L563.918 340.89L564.794 341.209L572.954 346.385L572.786 347.153L571.923 353.14L570.757 359.082L569.288 365.666L563.668 362.158Z" fill="#FF0000" fill-opacity="0.4" shape-rendering="crispEdges"/>
<path d="M463.683 259.97L467.759 263.013L473.03 267.155L478.592 270.897L479.705 271.592L477.611 272.8L470.686 277.051L467.491 279.012L460.98 275.197L461.042 271.62L460.948 267.53L460.601 263.449L460.617 263.209L460.662 262.489L461.062 261.617L462.664 259.25L463.683 259.97Z" fill="#FF0000" fill-opacity="0.4" shape-rendering="crispEdges"/>
<path d="M555.025 358.217L542.076 349.448L529.394 340.285L516.991 330.775L504.884 320.89L487.034 304.968L479.504 297.845L469.653 288.528L460.075 278.905L460.98 275.197L467.491 279.012L465.208 280.413L464.91 280.726L464.907 281.16L465.165 281.509L475.074 287.694L475.817 287.929L476.582 287.763L478.687 286.147L480.559 284.24L480.605 284.207L480.832 284.327L481.72 284.799L482.42 284.903L483.076 284.647L491.219 278.697L519.636 295.834L549.344 313.859L552.946 316.131L566.84 324.889L568.753 326.095L576.377 330.901L576.178 335.162L575.905 336.564L575.363 339.349L574.003 343.383L573.21 345.215L572.954 346.385L564.794 341.209L563.918 340.89L562.969 340.755L562.596 340.855L562.316 341.137L562.239 341.526L563.668 362.158L569.288 365.666L568.975 367.071L555.025 358.217Z" fill="#FF0000" fill-opacity="0.4" shape-rendering="crispEdges"/>
<path d="M476.916 273.218L464.269 265.489L460.617 263.209M488.737 280.514L526.273 304.049L563.446 328.232L575.905 336.564M460.98 275.197L461.042 271.62L460.948 267.53L460.601 263.449L460.617 263.209M460.98 275.197L460.075 278.905L469.653 288.528L479.504 297.845M460.98 275.197L467.491 279.012M479.597 286.278L479.014 290.922L478.87 293.305L479.052 295.663L479.504 297.845M478.972 285.888L510.437 305.073L572.563 344.728L573.21 345.215M479.199 289.5L507.089 306.495L562.239 341.526M562.239 341.526L563.668 362.158M562.239 341.526L562.316 341.137L562.596 340.855L562.969 340.755L563.918 340.89L564.794 341.209L572.954 346.385M479.069 295.736L492.259 307.96L505.738 319.886L517.825 329.738L530.184 339.219L542.821 348.354L555.73 357.12L563.668 362.158M563.668 362.158L569.288 365.666M572.97 346.395L572.954 346.385M573.21 345.215L574.003 343.383L575.363 339.349L575.905 336.564M573.21 345.215L572.954 346.385M547.284 317.623L549.252 317.086L551.283 317.211L553.157 317.985L561.072 322.926L561.992 323.771L562.53 324.896L562.734 326.291L562.637 327.706M542.102 314.264C545.82 313.986 549.544 314.628 552.946 316.131M553.191 316.241C553.11 316.203 553.028 316.167 552.946 316.131M570.089 332.628C570.434 331.474 570.479 330.253 570.22 329.08C569.977 327.979 569.473 326.956 568.753 326.095M564.633 329.014L566.84 324.889M470.641 277.01L470.686 277.051M504.976 266.921L480.832 284.327M491.216 278.695L491.219 278.697M575.905 336.564L576.178 335.162L576.377 330.901L568.753 326.095M569.288 365.666L568.975 367.071L555.025 358.217L542.076 349.448L529.394 340.285L516.991 330.775L504.884 320.89L487.034 304.968L479.504 297.845M569.288 365.666L570.757 359.082L571.923 353.14L572.786 347.153L572.954 346.385M460.617 263.209L460.662 262.489L461.062 261.617L462.664 259.25L463.683 259.97L467.759 263.013L473.03 267.155L478.592 270.897L479.705 271.592M566.84 324.889L568.753 326.095M566.84 324.889L552.946 316.131M470.686 277.051L474.005 280.066L477.713 282.671L480.605 284.207M470.686 277.051L477.611 272.8L479.705 271.592M470.686 277.051L467.491 279.012M491.219 278.697L506.078 267.838L506.153 267.718L506.135 267.582L506.034 267.478L501.592 265.12L498.803 264.19L495.868 263.957L492.936 264.413L490.209 265.536L479.705 271.592M491.219 278.697L483.076 284.647L482.42 284.903L481.72 284.799L480.832 284.327M491.219 278.697L519.636 295.834L549.344 313.859L552.946 316.131M480.832 284.327L480.605 284.207M480.605 284.207L480.559 284.24L478.687 286.147L476.582 287.763L475.817 287.929L475.074 287.694L465.165 281.509L464.907 281.16L464.91 280.726L465.208 280.413L467.491 279.012" stroke="#FF0000" stroke-width="2" shape-rendering="crispEdges"/>
</g>
<defs>
<filter id="filter0_d_4_1446" x="436.971" y="235.845" width="162.432" height="154.833" filterUnits="userSpaceOnUse" color-interpolation-filters="sRGB">
<feFlood flood-opacity="0" result="BackgroundImageFix"/>
<feColorMatrix in="SourceAlpha" type="matrix" values="0 0 0 0 0 0 0 0 0 0 0 0 0 0 0 0 0 0 127 0" result="hardAlpha"/>
<feOffset/>
<feGaussianBlur stdDeviation="11"/>
<feComposite in2="hardAlpha" operator="out"/>
<feColorMatrix type="matrix" values="0 0 0 0 1 0 0 0 0 0 0 0 0 0 0 0 0 0 1 0"/>
<feBlend mode="normal" in2="BackgroundImageFix" result="effect1_dropShadow_4_1446"/>
<feBlend mode="normal" in="SourceGraphic" in2="effect1_dropShadow_4_1446" result="shape"/>
</filter>
</defs>
</svg>
